<?xml version="1.0" encoding="utf-8"?>
<!-- Generator: Adobe Illustrator 15.1.0, SVG Export Plug-In . SVG Version: 6.00 Build 0)  -->
<!DOCTYPE svg PUBLIC "-//W3C//DTD SVG 1.1//EN" "http://www.w3.org/Graphics/SVG/1.1/DTD/svg11.dtd">
<svg version="1.1" id="Слой_1" xmlns:xodm="http://www.corel.com/coreldraw/odm/2003"
	 xmlns="http://www.w3.org/2000/svg" xmlns:xlink="http://www.w3.org/1999/xlink" x="0px" y="0px" width="118px" height="99px"
	 viewBox="0 0 118 99" enable-background="new 0 0 118 99" xml:space="preserve">
<g id="Слой_x0020_1_1_">
	<g id="_2726424288320_1_">
		<ellipse fill="#F06524" cx="69.221" cy="67.62" rx="48.779" ry="31.12"/>
		<path fill="#F06524" d="M18.37,25.79c-3.841-2.33-3.49-4.271-7.58-6.72c0.13,3.75,1.71,6.1,2.54,10.1L0,32.63l11.51,3.101
			l-2.689,8c3.89-2.28,6.199-5.03,9.55-6.881l6.399,10.8c1.32-2.58-0.369-8.26-0.379-12.41l9.31-2.01l-9.229-4.58
			c-0.041-3.971,1.469-8,0.409-10.621C21.62,21.15,22.221,23.439,18.37,25.79L18.37,25.79z"/>
		<path fill="#F06524" d="M56.23,12.08l-4.721,0.1C51.27,8.27,54.02,4.58,55,0.26c-2.27,1.2-4.721,5.45-7.33,8.28l-7.19-7.68
			L42.5,12.8l-10.91,1.45c3.189,1.891,7.66,1.96,11.551,2.73l-2.301,8.07l6.54-6.989c4.47,2.34,4.431,5.129,8.271,8.219
			c-0.59-3.719-3.26-6.829-2.961-10.52l10.261-1.34L56.23,12.08L56.23,12.08z"/>
	</g>
</g>
<g enable-background="new    ">
	<path fill="#FFFFFF" d="M58.75,57.516l0.838,1.865l-2.258,3.82h-1.933L58.75,57.516z M58.801,58.518l-3.267-5.615h1.941
		l2.548,4.613l3.361,5.686h-1.933L58.801,58.518z M59.365,56.554l1.941-3.651h1.941l-3.147,5.557L59.365,56.554z"/>
	<path fill="#FFFFFF" d="M70.885,63.191v-7.313l0.205,0.258l-4.268,7.055h-1.514V52.902h1.728v7.48l-0.205-0.258l4.284-7.223h1.496
		v10.289H70.885z"/>
	<path fill="#FFFFFF" d="M74.322,52.902h6.893v1.826h-6.893V52.902z M76.896,53.984h1.744v9.217h-1.744V53.984z"/>
</g>
<g enable-background="new    ">
	<path fill="#FFFFFF" d="M39.17,69.12h1.745v10.299H39.17V69.12z M40.256,69.12h5.448v1.925h-5.448V69.12z M44.78,69.12h1.745
		v10.299H44.78V69.12z"/>
	<path fill="#FFFFFF" d="M49.261,69.12h1.745v14.485h-1.745V69.12z M51.792,79.106c-0.41-0.308-0.712-0.743-0.906-1.305l0.12-2.153
		c0,0.443,0.068,0.82,0.205,1.131c0.137,0.312,0.335,0.549,0.595,0.715c0.259,0.166,0.574,0.248,0.945,0.248
		c0.576,0,1.022-0.203,1.338-0.61s0.475-0.98,0.475-1.722v-2.232c0-0.754-0.158-1.34-0.475-1.756s-0.763-0.625-1.338-0.625
		c-0.371,0-0.686,0.079-0.945,0.238c-0.26,0.158-0.458,0.392-0.595,0.699c-0.137,0.308-0.205,0.676-0.205,1.106l-0.18-1.984
		c0.268-0.603,0.619-1.067,1.052-1.394c0.434-0.328,0.915-0.492,1.445-0.492c0.627,0,1.165,0.164,1.612,0.492
		c0.447,0.326,0.788,0.805,1.022,1.434c0.233,0.628,0.351,1.385,0.351,2.271v2.242c0,0.873-0.12,1.621-0.359,2.242
		c-0.239,0.623-0.59,1.097-1.052,1.424c-0.462,0.328-1.015,0.492-1.659,0.492C52.685,79.568,52.203,79.414,51.792,79.106z"/>
	<path fill="#FFFFFF" d="M60.216,79.042c-0.548-0.351-0.965-0.862-1.253-1.533c-0.288-0.671-0.432-1.479-0.432-2.426v-1.677
		c0-0.933,0.144-1.731,0.432-2.396c0.288-0.664,0.705-1.17,1.253-1.518c0.547-0.348,1.206-0.521,1.976-0.521
		s1.428,0.174,1.975,0.521c0.548,0.348,0.966,0.854,1.253,1.518c0.288,0.665,0.433,1.464,0.433,2.396v1.707
		c0,0.939-0.145,1.74-0.433,2.406c-0.287,0.664-0.705,1.172-1.253,1.522c-0.547,0.351-1.205,0.526-1.975,0.526
		S60.763,79.393,60.216,79.042z M63.606,76.979c0.333-0.443,0.5-1.065,0.5-1.865v-1.707c0-0.801-0.167-1.419-0.5-1.855
		c-0.334-0.437-0.806-0.654-1.415-0.654c-0.61,0-1.082,0.218-1.416,0.654c-0.333,0.437-0.5,1.055-0.5,1.855v1.707
		c0,0.8,0.167,1.422,0.5,1.865c0.334,0.443,0.806,0.664,1.416,0.664C62.801,77.643,63.272,77.422,63.606,76.979z"/>
	<path fill="#FFFFFF" d="M67.305,77.594h8.544v1.825h-8.544V77.594z M67.305,77.594h1.745v4.415h-1.745V77.594z M67.621,77.594
		h0.206c0.353,0,0.621-0.113,0.804-0.338c0.182-0.225,0.306-0.566,0.372-1.027c0.065-0.459,0.098-1.092,0.098-1.899V69.12h1.745
		v5.884c0,1.19-0.21,2.092-0.629,2.703c-0.419,0.612-1.017,0.918-1.791,0.918H68.22L67.621,77.594z M70.187,69.12h3.951v1.825
		h-3.951V69.12z M73.557,69.12h1.744v10.299h-1.744V69.12z M75.139,77.594h1.744v4.415h-1.744V77.594z"/>
	<path fill="#FFFFFF" d="M79.32,78.779c-0.542-0.526-0.813-1.324-0.813-2.396c0-1.019,0.248-1.783,0.744-2.292
		s1.245-0.765,2.249-0.765h2.522l0.12,1.628H81.51c-0.456,0-0.797,0.118-1.022,0.353c-0.225,0.234-0.338,0.594-0.338,1.076
		c0,0.522,0.15,0.91,0.449,1.161c0.3,0.251,0.754,0.377,1.364,0.377c0.667,0,1.164-0.083,1.492-0.248s0.491-0.423,0.491-0.774
		l0.18,1.449c-0.153,0.277-0.343,0.506-0.568,0.685s-0.486,0.313-0.782,0.401c-0.297,0.09-0.63,0.135-1.001,0.135
		C80.68,79.568,79.861,79.305,79.32,78.779z M83.946,72.891c0-0.675-0.155-1.199-0.466-1.572c-0.311-0.375-0.751-0.561-1.321-0.561
		c-0.354,0-0.699,0.063-1.039,0.188c-0.339,0.126-0.64,0.301-0.902,0.526l-1.273-1.013c0.336-0.469,0.779-0.834,1.329-1.096
		c0.551-0.262,1.162-0.393,1.835-0.393c0.735,0,1.365,0.15,1.89,0.451c0.524,0.302,0.924,0.738,1.197,1.311s0.41,1.262,0.41,2.068
		v6.618h-1.659V72.891z"/>
	<path fill="#FFFFFF" d="M90.232,73.932l1.274,1.043l-2.369,4.444h-2.249L90.232,73.932z M87.41,69.12h2.019l2.154,4.286
		l-0.71,1.775L87.41,69.12z M90.224,73.248h5.85v1.825h-5.85V73.248z M92.276,69.12h1.744v10.299h-1.744V69.12z M94.713,73.406
		l2.155-4.286h2.019l-3.464,6.062L94.713,73.406z M94.79,74.975l1.274-1.043l3.344,5.487h-2.249L94.79,74.975z"/>
</g>
</svg>
