<?xml version="1.0" encoding="UTF-8"?>
<!DOCTYPE svg PUBLIC "-//W3C//DTD SVG 1.1//EN" "http://www.w3.org/Graphics/SVG/1.1/DTD/svg11.dtd">
<!-- Creator: CorelDRAW 2020 (64-Bit) -->
<svg xmlns="http://www.w3.org/2000/svg" xml:space="preserve" width="196px" height="139px" version="1.1" style="shape-rendering:geometricPrecision; text-rendering:geometricPrecision; image-rendering:optimizeQuality; fill-rule:evenodd; clip-rule:evenodd"
viewBox="0 0 196 139"
 xmlns:xlink="http://www.w3.org/1999/xlink"
 xmlns:xodm="http://www.corel.com/coreldraw/odm/2003">
 <defs>
  <style type="text/css">
   <![CDATA[
    .fil3 {fill:#603714}
    .fil8 {fill:#623A16}
    .fil9 {fill:#633A13}
    .fil4 {fill:#99A40A}
    .fil0 {fill:#A47B52}
    .fil1 {fill:#A7AD0A}
    .fil5 {fill:#AEB325}
    .fil2 {fill:#B7B929}
    .fil7 {fill:#F5ECE4}
    .fil6 {fill:#F8EBE2}
   ]]>
  </style>
 </defs>
 <g id="Слой_x0020_1">
  <metadata id="CorelCorpID_0Corel-Layer"/>
  <g id="_2726388552992">
   <path class="fil0" d="M150.14 98.81c-0.28,-0.48 -0.35,-0.09 -0.72,-1.5 -0.59,-2.28 -0.16,-4.37 0.37,-6.68 0.61,-2.69 1.45,-5.55 2.07,-7.84 0.8,1.2 6.83,17.89 -1.72,16.02zm5.34 -17.51c1.32,0.86 15.52,7.98 11.26,12.13 -3.63,1.57 -5.23,-1.6 -6.73,-3.84l-4.53 -8.29zm-19.29 10.72c0.15,-4.62 8.68,-9.4 12.55,-10.59 -0.49,1.44 -6.75,14.66 -12.55,10.59zm14.22 -16.51c4.45,-2.83 6.72,3.17 3.54,5.23 -1.47,0.95 -3.24,0.7 -4.29,-0.67 -2,-2.6 -0.32,-3.88 0.75,-4.56zm6.48 2.52c2.54,-0.84 6.62,-1.89 9.31,-2.2 4.71,-0.54 7.15,-0.1 7.08,4.36 -4.37,1.67 -12.28,0.22 -16.39,-2.16zm-26.13 -0.83c1.84,-4.32 13.5,-0.46 16.6,0.9 -1.91,0.84 -6.45,1.82 -8.76,2.13 -4.15,0.56 -6.55,0.5 -7.84,-3.03zm24.76 -2.37c1.1,-2.65 8.12,-15.05 12.06,-11.06 3.39,3.42 -9.06,9.89 -12.06,11.06zm-17.89 -12.44c2.34,-0.2 0.89,-0.65 3.04,0.4 2.53,1.24 7.25,9.66 8.23,12.08 -5.47,-2.78 -13.77,-6.8 -11.27,-12.48zm14.51 11.02c-0.86,-2.25 -1.96,-6.65 -2.27,-9.06 -0.54,-4.21 -0.51,-6.63 3.41,-7.28 3.71,3.14 0.93,12.54 -1.14,16.34zm-3.75 -4.93c-0.15,-0.14 -0.35,-0.58 -0.42,-0.46l-0.79 -0.89c-6.37,-7.75 -14.37,-17.22 -26.45,-19.32 2.41,9.18 14.16,22.48 22.34,26.3 -7.14,-0.3 -25.92,-3.28 -34.52,4.5 3.09,2.64 10.68,3.8 15.43,4.26 7.87,0.76 12.04,-0.59 19.05,-1.17 -8.26,4.03 -18.85,17.02 -21.64,27.19 5.26,-0.28 12.19,-6.15 15.25,-8.62 3.92,-3.14 8.29,-8.17 11.51,-13.1 -1.34,10.74 -2.24,26.18 4.42,33.98 1.67,-1.78 2.3,-4.83 2.92,-7.15 3.54,-13.33 0.51,-17.48 0.36,-27.18 1.44,5.8 16.92,19.64 27.78,21.62 -2.95,-9.09 -10.72,-18 -18.27,-23.41 -0.62,-0.45 -1.18,-0.84 -1.64,-1.21l-2.07 -1.8c12.06,1.93 24.94,1.55 34.35,-4.25 -6.62,-6.06 -25.09,-4.42 -34.26,-3.35 10.62,-9.44 14.81,-10.1 21.15,-27.2 -6.63,0.25 -16.66,9.91 -21.02,14.49 -2.47,2.6 -3.66,4.71 -5.68,7.07 1.56,-16.81 1.8,-19.33 -4.12,-33.98 -0.94,0.79 -0.41,0.15 -1.13,1.25 -0.48,0.73 -0.61,1.1 -0.94,1.96 -3.88,10.45 -3.16,19.97 -1.61,30.47z"/>
   <path class="fil1" d="M1.19 28.35c1.58,4.28 2.82,10.88 5.75,13.61 1.39,-0.8 4.43,-0.47 6.13,-0.34l8.62 10.17c-4.21,0.62 -8.29,-1.21 -10.93,0.22l1.61 3.59c1.65,-1.81 -0.67,-0.76 2.84,-0.83 2.57,-0.06 2.37,0.82 9.28,0.08 2.7,3.32 6.77,7.49 9.81,10.97 -4.37,2.24 -11.36,2.39 -16.37,2.5l2.14 4.17c0,-1.85 6.51,-1.51 8.31,-1.8 2.33,-0.37 7.1,-2.09 8.18,-1.86 1.9,0.43 8.56,8.26 9.74,9.99 -3.03,0.97 -7.25,1.99 -10.5,2.65 -5.67,1.16 -7.96,0.01 -9.87,1.83 0.65,2.38 -0.38,1.15 1.69,2.62 2.94,-0.71 7.46,-1.08 10.81,-1.71 14.38,-2.71 7.54,-5.22 15.28,1.77 1.9,1.71 3.3,3.22 4.06,4.68 -7.43,2.25 -12.84,3.54 -20.84,5.37l0.29 0.44c-0.78,-0.89 -1.17,0.44 -1.77,0.94l1.7 1.52c1.1,-0.12 3.41,-0.3 3.63,-0.34 7.95,-1.2 14.69,-4.39 20.37,-5.74 1.35,2.57 7.88,8.29 10.49,9.25 1.05,-4.55 0.71,-2.05 -0.85,-4.07l-7.64 -7.22c0.31,-0.97 0.59,-1.85 1.13,-2.97 0.42,-0.88 0.22,-0.59 0.79,-1.42 0.66,-0.95 0.33,-0.59 1.13,-1.32l-2.21 -3.04 -3.2 5.79c-2.68,-1.32 -6.6,-6.42 -9.64,-8.97 0.59,-4.06 2.17,-7.3 2.99,-11.6l1.56 -9.77c1.13,-5.16 0.01,-2.82 1.32,-2.21 -1.17,-2.39 -1.57,-2.02 -3.94,-3.26 -0.44,6.04 -1.69,19.04 -5,23.26 -0.22,-0.21 -1.53,-1.35 -2.21,-2.05 -11.82,-11.98 -5.43,-4.83 -4,-23.38 0.35,-4.55 -0.42,-3.35 1.04,-4.63 -1.41,-1.97 -1.32,-1.56 -3.85,-2.42 -1.56,3.98 0.47,12.57 -3.12,19.55 -1.66,-0.76 -8.05,-8.41 -9.42,-10.37 0.76,-2 1.6,-4.01 2.25,-6.52 0.48,-1.84 0.57,-2.39 0.83,-4.14 0.4,-2.6 -0.11,-1.69 0.69,-3.21 -1.57,-1.76 -0.35,-0.91 -2.92,-1.67 -1.43,3.57 -1.25,8.9 -3.53,12.95 -0.05,-1.25 -8.2,-9.27 -9,-9.67l2.02 -8.07c-0.15,-0.13 -0.38,-0.5 -0.46,-0.36l-7.36 -3.55c-2.94,-1.27 -5.98,-2.7 -9.04,-3.54l1.19 4.13z"/>
   <path class="fil2" d="M60.81 37.78c3.72,3.01 4.58,0.56 5.83,4.81 0.72,2.47 1.31,6.51 2.19,7.52 -3.44,0.37 -1.71,-1.65 -7.81,-3.04 0.72,8.76 5.39,3.67 8.77,8.31 0.21,0.29 2.91,9.98 3.02,10.98 -2.67,-0.73 -4.59,-2.64 -6.28,-3.74l-5.5 -3.24c-0.07,-0.24 -0.33,-0.21 -0.49,-0.32l0.4 4.01c2.47,2.96 8.3,5.45 11.48,7.37 3.46,2.09 5.19,11.84 4.94,12.66 -0.66,-0.77 -12.6,-6.02 -15.23,-9.19l1.76 5.62c1.16,0.72 2.12,1.36 3,1.99 0.38,0.26 0.01,0.14 1.2,0.82 0.47,0.27 0.96,0.45 1.43,0.67 7.84,3.71 12.91,5.27 12.13,11.67l3.57 -0.57c0.92,-2.38 1.87,-0.32 -0.03,-1.88 0.45,-1.03 0.42,-1.07 0.4,-1.17l-2.52 -5.19c3.23,-1.72 0.93,-0.97 3.96,-3.12 3.75,-2.66 -3.24,2.04 0.89,-0.56 4.01,-2.52 5.41,-4.25 8.22,-7.6l-1.09 -2.32 -0.6 1.6c0.39,-0.3 2.44,1 -0.7,-2.81 -1.6,3.68 -8.69,9.23 -12.1,10.85l-4.04 -12.23c7.79,-4.11 5.78,-3.17 9.67,-7.29l2.34 -1.73c0.66,-0.5 0.41,-0.39 1.44,-1.15 -0.16,-0.28 -0.94,-1.69 -0.99,-1.76l-1.44 -1.76c-2.41,2.38 -1.2,2.36 -5.35,5.31l-6.69 4.77c-2.34,-12.52 -5.48,-9.98 0.16,-14.57l4.47 -4.2c0.1,-0.14 0.21,-0.32 0.3,-0.45l0.91 -1.39c-0.85,-2.14 -0.33,-1.43 -2.49,-2.67 -1.89,1.68 -4.41,5.93 -7.56,7.09l-3.01 -10.58c2.92,-1.74 0.61,-0.4 2.36,-1.96 1.54,-1.38 0.14,-0.77 2.92,-1.94l-5.84 -6.71c-1.11,-1.32 -5.77,-5.83 -7.05,-6.57l-0.95 15.66z"/>
   <path class="fil3" d="M75.37 100.47l-4.32 3.83c7.15,6.89 7.75,8.15 17.16,14.62 1.14,0.78 5.14,2.82 5.58,4.24 10.94,4.38 8.01,14.01 16.74,11.65 0.89,-3.21 0.68,-3.6 -1.27,-5.64 -9.29,-9.74 -16.43,-21.91 -22.06,-34.57l-1.98 -0.49 -3.57 0.57 -0.75 -0.05c2.05,5.61 6.61,12.64 7.87,17.09 -4.55,-2.47 -9.68,-8.11 -13.4,-11.25z"/>
   <path class="fil4" d="M37.15 98.93c3.09,2.85 8.66,6.07 14.47,7.43 10.27,2.42 11.44,0.16 19.43,-2.06l4.32 -3.83c0.19,-3.08 1.66,-2.59 1.74,-6.06 -0.5,-1.08 -4.44,-3.18 -6.02,-4.44 -2.67,-2.15 -3.25,-3.23 -4.89,-4.87 -0.8,0.73 -0.47,0.37 -1.13,1.32 -0.57,0.83 -0.37,0.54 -0.79,1.42 -0.54,1.12 -0.82,2 -1.13,2.97l7.64 7.22c1.56,2.02 1.9,-0.48 0.85,4.07 -2.61,-0.96 -9.14,-6.68 -10.49,-9.25 -5.68,1.35 -12.42,4.54 -20.37,5.74 -0.22,0.04 -2.53,0.22 -3.63,0.34z"/>
   <path class="fil4" d="M53.08 52.04c-0.51,-1.39 -0.35,-0.73 -1.75,-1.79 -2.42,-1.83 -5.51,-4.52 -8.42,-5.01 -1.46,1.28 -0.69,0.08 -1.04,4.63 -1.43,18.55 -7.82,11.4 4,23.38 0.68,0.7 1.99,1.84 2.21,2.05 3.31,-4.22 4.56,-17.22 5,-23.26z"/>
   <path class="fil4" d="M27.62 85.92c0.46,3.14 6,9.74 7.83,11.49 0.6,-0.5 0.99,-1.83 1.77,-0.94l-0.29 -0.44c8,-1.83 13.41,-3.12 20.84,-5.37 -0.76,-1.46 -2.16,-2.97 -4.06,-4.68 -7.74,-6.99 -0.9,-4.48 -15.28,-1.77 -3.35,0.63 -7.87,1 -10.81,1.71z"/>
   <path class="fil4" d="M63.99 82.06l-0.1 -2.53 -1.76 -5.62 -1.19 -10.84 -0.4 -4.01c-0.15,-1.53 0.19,0.15 -0.32,-0.93 -0.04,-0.09 -0.28,-0.25 -0.31,-0.53 -0.05,-0.33 -0.27,-0.4 -0.4,-0.6 -1.11,-1.88 -0.88,-1.21 -2.49,-1.7 -1.31,-0.61 -0.19,-2.95 -1.32,2.21l-1.56 9.77c-0.82,4.3 -2.4,7.54 -2.99,11.6 3.04,2.55 6.96,7.65 9.64,8.97l3.2 -5.79z"/>
   <path class="fil4" d="M20.07 72.49c1.06,3.03 3.88,9.32 5.86,10.81 1.91,-1.82 4.2,-0.67 9.87,-1.83 3.25,-0.66 7.47,-1.68 10.5,-2.65 -1.18,-1.73 -7.84,-9.56 -9.74,-9.99 -1.08,-0.23 -5.85,1.49 -8.18,1.86 -1.8,0.29 -8.31,-0.05 -8.31,1.8z"/>
   <path class="fil5" d="M95.05 72.27c0.63,-4.27 -2.35,-9.01 -3.99,-12.76 -1.03,0.76 -0.78,0.65 -1.44,1.15l-2.34 1.73c-3.89,4.12 -1.88,3.18 -9.67,7.29l4.04 12.23c3.41,-1.62 10.5,-7.17 12.1,-10.85 3.14,3.81 1.09,2.51 0.7,2.81l0.6 -1.6z"/>
   <path class="fil4" d="M17.93 68.32c5.01,-0.11 12,-0.26 16.37,-2.5 -3.04,-3.48 -7.11,-7.65 -9.81,-10.97 -6.91,0.74 -6.71,-0.14 -9.28,-0.08 -3.51,0.07 -1.19,-0.98 -2.84,0.83l5.56 12.72z"/>
   <path class="fil4" d="M39.06 42.82c-1.16,-1.72 -6.25,-4.42 -8.77,-4.69 -0.8,1.52 -0.29,0.61 -0.69,3.21 -0.26,1.75 -0.35,2.3 -0.83,4.14 -0.65,2.51 -1.49,4.52 -2.25,6.52 1.37,1.96 7.76,9.61 9.42,10.37 3.59,-6.98 1.56,-15.57 3.12,-19.55z"/>
   <path class="fil5" d="M88.63 55.99c-0.12,-2.46 -4.31,-8.58 -6.2,-10.53l-0.91 1.39c-0.09,0.13 -0.2,0.31 -0.3,0.45l-4.47 4.2c-5.64,4.59 -2.5,2.05 -0.16,14.57l6.69 -4.77c4.15,-2.95 2.94,-2.93 5.35,-5.31z"/>
   <path class="fil5" d="M59.51 57c0.13,0.2 0.35,0.27 0.4,0.6 0.03,0.28 0.27,0.44 0.31,0.53 0.51,1.08 0.17,-0.6 0.32,0.93 0.16,0.11 0.42,0.08 0.49,0.32l5.5 3.24c1.69,1.1 3.61,3.01 6.28,3.74 -0.11,-1 -2.81,-10.69 -3.02,-10.98 -3.38,-4.64 -8.05,0.45 -8.77,-8.31 6.1,1.39 4.37,3.41 7.81,3.04 -0.88,-1.01 -1.47,-5.05 -2.19,-7.52 -1.25,-4.25 -2.11,-1.8 -5.83,-4.81l-0.25 17.02c-0.51,2.4 0.58,0.83 -1.05,2.2z"/>
   <path class="fil5" d="M62.13 73.91c2.63,3.17 14.57,8.42 15.23,9.19 0.25,-0.82 -1.48,-10.57 -4.94,-12.66 -3.18,-1.92 -9.01,-4.41 -11.48,-7.37l1.19 10.84z"/>
   <path class="fil6" d="M29.52 4.91l0.48 1.52 -7.31 -0.82c2.05,4.53 6.32,4.45 4.7,7.16 -0.5,3.18 -1.11,3.29 -1.54,6.28 3.58,-1.52 3.26,-3.56 6.52,-5.18 2.43,1.84 3.33,4.28 5.62,5.71 -0.54,-3.67 -1.81,-5.12 -1.95,-9.06l6.46 -2.14c-0.77,-0.59 -0.27,-0.37 -1.61,-0.84 -0.74,-0.25 -0.98,-0.3 -1.74,-0.42 -1.09,-0.17 -2.83,-0.19 -3.97,-0.25 -0.68,-2.15 -1.04,-4.93 -2.81,-6.37 -1.52,2.52 -0.64,2.29 -2.85,4.41z"/>
   <path class="fil4" d="M27.37 36.46c-1.23,-1.57 -8.4,-4.64 -10.51,-4.79l-2.02 8.07c0.8,0.4 8.95,8.42 9,9.67 2.28,-4.05 2.1,-9.38 3.53,-12.95z"/>
   <path class="fil5" d="M85.22 94.11l1.98 0.49c2.47,-3.33 10.02,-4.55 8.94,-20.01 -2.81,3.35 -4.21,5.08 -8.22,7.6 -4.13,2.6 2.86,-2.1 -0.89,0.56 -3.03,2.15 -0.73,1.4 -3.96,3.12l2.52 5.19c0.02,0.1 0.05,0.14 -0.4,1.17 1.9,1.56 0.95,-0.5 0.03,1.88z"/>
   <path class="fil7" d="M135.37 125.74l-6.83 -0.08c1.58,1.84 3.86,1.79 6.42,3.61l-2.35 9.49c2.29,-1.29 3.24,-4.07 5.42,-5.63l5.44 6.37c0.13,-2.78 -1.73,-6.05 -2.14,-9.71l6.3 -1.66c-0.26,-0.39 -0.54,-0.73 -0.64,-0.56l-5.78 -1.37c-1.9,-1.26 -0.57,-0.43 -1.51,-2.73l-2.01 -3.07 -2.32 5.34z"/>
   <path class="fil5" d="M63.99 82.06l2.21 3.04c1.64,1.64 2.22,2.72 4.89,4.87 1.58,1.26 5.52,3.36 6.02,4.44l3.79 0.22 0.75 0.05c0.78,-6.4 -4.29,-7.96 -12.13,-11.67 -0.47,-0.22 -0.96,-0.4 -1.43,-0.67 -1.19,-0.68 -0.82,-0.56 -1.2,-0.82 -0.88,-0.63 -1.84,-1.27 -3,-1.99l0.1 2.53z"/>
   <path class="fil4" d="M10.76 52.01c2.64,-1.43 6.72,0.4 10.93,-0.22l-8.62 -10.17c-1.7,-0.13 -4.74,-0.46 -6.13,0.34 0.03,2.17 2.56,9.18 3.82,10.05z"/>
   <path class="fil5" d="M79.94 42.79c-0.31,-1.79 0.2,-0.17 -0.73,-1.78 -0.03,-0.04 -1.37,-1.86 -1.5,-2.03 -1.34,-1.57 -1.81,-1.79 -3.06,-3.58 -2.78,1.17 -1.38,0.56 -2.92,1.94 -1.75,1.56 0.56,0.22 -2.36,1.96l3.01 10.58c3.15,-1.16 5.67,-5.41 7.56,-7.09z"/>
   <path class="fil3" d="M152.14 73.41c2.07,-3.8 4.85,-13.2 1.14,-16.34 -3.92,0.65 -3.95,3.07 -3.41,7.28 0.31,2.41 1.41,6.81 2.27,9.06z"/>
   <path class="fil3" d="M156.89 78.03c4.11,2.38 12.02,3.83 16.39,2.16 0.07,-4.46 -2.37,-4.9 -7.08,-4.36 -2.69,0.31 -6.77,1.36 -9.31,2.2z"/>
   <path class="fil8" d="M150.14 98.81c8.55,1.87 2.52,-14.82 1.72,-16.02 -0.62,2.29 -1.46,5.15 -2.07,7.84 -0.53,2.31 -0.96,4.4 -0.37,6.68 0.37,1.41 0.44,1.02 0.72,1.5z"/>
   <path class="fil3" d="M148.9 74.87c-0.98,-2.42 -5.7,-10.84 -8.23,-12.08 -2.15,-1.05 -0.7,-0.6 -3.04,-0.4 -2.5,5.68 5.8,9.7 11.27,12.48z"/>
   <path class="fil9" d="M130.76 77.2c1.29,3.53 3.69,3.59 7.84,3.03 2.31,-0.31 6.85,-1.29 8.76,-2.13 -3.1,-1.36 -14.76,-5.22 -16.6,-0.9z"/>
   <path class="fil3" d="M155.52 74.83c3,-1.17 15.45,-7.64 12.06,-11.06 -3.94,-3.99 -10.96,8.41 -12.06,11.06z"/>
   <path class="fil3" d="M136.19 92.02c5.8,4.07 12.06,-9.15 12.55,-10.59 -3.87,1.19 -12.4,5.97 -12.55,10.59z"/>
   <path class="fil3" d="M155.48 81.3l4.53 8.29c1.5,2.24 3.1,5.41 6.73,3.84 4.26,-4.15 -9.94,-11.27 -11.26,-12.13z"/>
   <path class="fil9" d="M150.02 77.9c1.54,-2.89 5.37,-2.75 3.63,1.71 -3.79,1.37 -2,-0.23 -3.63,-1.71zm0.39 -2.39c-1.07,0.68 -2.75,1.96 -0.75,4.56 1.05,1.37 2.82,1.62 4.29,0.67 3.18,-2.06 0.91,-8.06 -3.54,-5.23z"/>
   <path class="fil0" d="M150.02 77.9c1.63,1.48 -0.16,3.08 3.63,1.71 1.74,-4.46 -2.09,-4.6 -3.63,-1.71z"/>
  </g>
 </g>
</svg>
