<?xml version="1.0" encoding="UTF-8"?>
<!DOCTYPE svg PUBLIC "-//W3C//DTD SVG 1.1//EN" "http://www.w3.org/Graphics/SVG/1.1/DTD/svg11.dtd">
<!-- Creator: CorelDRAW 2020 (64-Bit) -->
<svg xmlns="http://www.w3.org/2000/svg" xml:space="preserve" width="149px" height="137px" version="1.1" style="shape-rendering:geometricPrecision; text-rendering:geometricPrecision; image-rendering:optimizeQuality; fill-rule:evenodd; clip-rule:evenodd"
viewBox="0 0 149 137"
 xmlns:xlink="http://www.w3.org/1999/xlink"
 xmlns:xodm="http://www.corel.com/coreldraw/odm/2003">
 <defs>
  <style type="text/css">
   <![CDATA[
    .fil0 {fill:#B5DBDE}
    .fil2 {fill:#CBEBED}
    .fil1 {fill:#F06524}
    .fil3 {fill:#F8EBE2}
   ]]>
  </style>
 </defs>
 <g id="Слой_x0020_1">
  <metadata id="CorelCorpID_0Corel-Layer"/>
  <g id="_2726422980480">
   <path class="fil0" d="M59.22 116.14c-1.67,-9.81 12.57,-11.31 13.39,-2.56 0.97,10.34 -12.07,10.35 -13.39,2.56zm-31.17 -1.32c-1.83,-9.85 12.41,-10.97 13.41,-2.59 1.18,9.77 -11.88,10.87 -13.41,2.59zm47.03 -19.76c-3.19,-10.12 11.17,-12.44 12.97,-4.35 2.2,9.89 -10.68,11.63 -12.97,4.35zm-62.74 -1.31c-1.3,-9.05 12.97,-10.79 13.58,-1.96 0.67,9.74 -12.4,10.13 -13.58,1.96zm43.28 -1.32c-3.55,9.02 -15.36,4.06 -13.15,-4.45 2.1,-8.14 16.72,-4.64 13.15,4.45zm37.53 8.24c0.08,-3.24 2.34,-10.99 3.02,-15.29 0.95,-6.06 1.13,-11.84 2.03,-17.76 12.59,-1.58 13.55,10.18 11.7,18.57 -1.87,8.45 -7.13,15.3 -16.75,14.48zm-32.28 -29.32c-3,-9.29 11.31,-12.64 13.17,-3.79 1.87,8.86 -10.6,11.76 -13.17,3.79zm-25.92 0c-2.85,8.66 -15.34,5.15 -13.27,-3.85 0.74,-3.22 4.63,-5.8 9.03,-4.66 3.06,0.79 5.43,4.9 4.24,8.51zm12.01 -25.89c8.9,-3.19 11.74,10.5 4.21,13.01 -7.58,2.53 -14.22,-9.43 -4.21,-13.01zm-34.2 -1.33c8.67,-2.37 11.49,10.84 3.59,13.13 -8.33,2.42 -13.76,-10.35 -3.59,-13.13zm76.21 8.78c-2.97,8.63 -16.32,4 -12.79,-5.04 2.64,-6.73 16.03,-4.4 12.79,5.04zm-88.37 -20.92c-1.67,9.48 0.6,40.66 1.48,51.74 1.32,16.59 4.45,29.78 12.84,39.44 7.09,8.17 22.69,14.9 38.53,14.29 13.46,-0.51 28.06,-9.23 32.1,-20.1 19.41,1.98 31.25,-10.48 34.8,-27.17 1.97,-9.3 1.52,-19.6 -2.24,-27.48 -5.47,-11.5 -13.5,-9.51 -19.54,-10.89l-1.29 -19.95 -96.68 0.12z"/>
   <path class="fil1" d="M46.98 21.97c1.3,-1.09 4.66,-7.41 5.86,-9.51 2.42,-4.23 4.49,-6.74 2.08,-11.57 -6.32,-1.71 -5.32,3.08 -8.05,6.9 -1.26,-3.76 -2.37,-7.24 -6.67,-7.29 -5.65,6.66 0.24,12.35 6.78,21.47z"/>
   <path class="fil2" d="M55.62 92.43c3.57,-9.09 -11.05,-12.59 -13.15,-4.45 -2.21,8.51 9.6,13.47 13.15,4.45z"/>
   <path class="fil2" d="M59.22 116.14c1.32,7.79 14.36,7.78 13.39,-2.56 -0.82,-8.75 -15.06,-7.25 -13.39,2.56z"/>
   <path class="fil2" d="M34.95 71.35c1.19,-3.61 -1.18,-7.72 -4.24,-8.51 -4.4,-1.14 -8.29,1.44 -9.03,4.66 -2.07,9 10.42,12.51 13.27,3.85z"/>
   <path class="fil2" d="M28.05 114.82c1.53,8.28 14.59,7.18 13.41,-2.59 -1,-8.38 -15.24,-7.26 -13.41,2.59z"/>
   <path class="fil2" d="M75.08 95.06c2.29,7.28 15.17,5.54 12.97,-4.35 -1.8,-8.09 -16.16,-5.77 -12.97,4.35z"/>
   <path class="fil2" d="M60.87 71.35c2.57,7.97 15.04,5.07 13.17,-3.79 -1.86,-8.85 -16.17,-5.5 -13.17,3.79z"/>
   <path class="fil2" d="M12.76 44.13c-10.17,2.78 -4.74,15.55 3.59,13.13 7.9,-2.29 5.08,-15.5 -3.59,-13.13z"/>
   <path class="fil2" d="M88.97 52.91c3.24,-9.44 -10.15,-11.77 -12.79,-5.04 -3.53,9.04 9.82,13.67 12.79,5.04z"/>
   <path class="fil2" d="M12.34 93.75c1.18,8.17 14.25,7.78 13.58,-1.96 -0.61,-8.83 -14.88,-7.09 -13.58,1.96z"/>
   <path class="fil2" d="M46.96 45.46c-10.01,3.58 -3.37,15.54 4.21,13.01 7.53,-2.51 4.69,-16.2 -4.21,-13.01z"/>
   <path class="fil3" d="M143.33 24.98l-3.28 0.07c-0.17,-2.77 1.74,-5.39 2.42,-8.45 -1.58,0.85 -3.27,3.86 -5.09,5.86l-5 -5.44 1.41 8.47 -7.58 1.02c2.21,1.35 5.32,1.4 8.02,1.94l-1.59 5.72 4.54 -4.96c3.11,1.67 3.08,3.65 5.75,5.83 -0.42,-2.63 -2.27,-4.84 -2.06,-7.46l7.13 -0.94 -4.67 -1.66z"/>
  </g>
 </g>
</svg>
