<?xml version="1.0" encoding="UTF-8"?>
<!DOCTYPE svg PUBLIC "-//W3C//DTD SVG 1.1//EN" "http://www.w3.org/Graphics/SVG/1.1/DTD/svg11.dtd">
<!-- Creator: CorelDRAW 2020 (64-Bit) -->
<svg xmlns="http://www.w3.org/2000/svg" xml:space="preserve" width="165px" height="145px" version="1.1" style="shape-rendering:geometricPrecision; text-rendering:geometricPrecision; image-rendering:optimizeQuality; fill-rule:evenodd; clip-rule:evenodd"
viewBox="0 0 165 145"
 xmlns:xlink="http://www.w3.org/1999/xlink"
 xmlns:xodm="http://www.corel.com/coreldraw/odm/2003">
 <defs>
  <style type="text/css">
   <![CDATA[
    .fil1 {fill:#632D11}
    .fil2 {fill:#DCE2DB}
    .fil3 {fill:#F8EBE2}
    .fil0 {fill:#FBC509}
   ]]>
  </style>
 </defs>
 <g id="Слой_x0020_1">
  <metadata id="CorelCorpID_0Corel-Layer"/>
  <g id="_2726382730352">
   <path class="fil0" d="M116.3 98.69c-0.02,-1.53 1.05,-20.35 1.05,-20.35 1.06,-2.37 6.21,-2.28 8.83,-1.67 2.81,0.67 5.38,2.55 6.62,4.16 5.28,6.88 2.12,24.53 -16.5,17.86zm-13.3 -52.37c-9.89,5.08 -25.55,8.51 -38.21,8.49 -9.64,-0.02 -30.63,-3.34 -37.19,-8.2 -2.63,-0.64 -4.17,-1.5 -6.37,-2.76 -2.8,-1.59 -3.53,-2.56 -5.5,-1.69 0.57,5.73 -1.41,20.66 -1.76,27.77 -1.28,26.56 -1.23,51.47 21.87,66.71 12.73,8.4 31.92,11.46 48.88,6.41 8.99,-2.68 13.34,-6.37 18.54,-11.62 2.17,-2.2 4.05,-5.51 5.81,-8.96 1.89,-3.69 2.75,-7.67 4.51,-10.86 19.86,2.37 11.76,-0.35 20.2,-0.44 1.92,-2 21.64,-11.68 13.74,-31.68 -2.27,-5.74 -6.46,-9.87 -11.74,-12.41 -8.93,-4.27 -10.48,-2.6 -19.45,-1.05 -0.26,-4.59 -0.83,-9.05 -1.42,-13.56 -0.49,-3.85 -0.6,-11.55 -2.55,-11.19 -2.99,2.31 -5.77,3.29 -9.36,5.04z"/>
   <path class="fil1" d="M27.6 46.61c6.56,4.86 27.55,8.18 37.19,8.2 12.66,0.02 28.32,-3.41 38.21,-8.49 -5.07,-4.68 -29.56,-7.44 -38.21,-7.58 -11.28,-0.17 -28.53,2.61 -37.19,7.87z"/>
   <path class="fil2" d="M47.07 33.26c-5.85,0.97 -28.66,7.27 -30.41,7.13 -1.25,1.14 -0.54,-0.01 -0.93,1.77 1.97,-0.87 2.7,0.1 5.5,1.69 2.2,1.26 3.74,2.12 6.37,2.76 8.66,-5.26 25.91,-8.04 37.19,-7.87 8.65,0.14 33.14,2.9 38.21,7.58 3.59,-1.75 6.37,-2.73 9.36,-5.04 -3.14,-2.87 -9.77,-3.64 -14.28,-4.9 -4.79,-1.33 -10.68,-2.7 -15.75,-3.55 -13.35,-2.23 -22.24,-1.37 -35.26,0.43z"/>
   <path class="fil3" d="M-0.5 9.55c0.7,1.15 5.18,3.25 7.01,4.98l-1.25 6.69c2.74,-1.33 3.14,-2.92 5.99,-4.34 1.94,0.87 1.75,0.86 3.07,1.92l3.37 2.27c-0.58,-3.15 -1.64,-4.61 -2.1,-7.51l6.27 -4 -7.48 -0.35 -2.18 -8.71c-6.24,8.79 1.68,8.21 -12.7,9.05z"/>
   <path class="fil3" d="M155.69 128.39c-1.5,-1.21 -4.76,-8.34 -8.74,-4.73 -3.27,4.96 4.51,9.39 8.74,10.27 3.76,-1.91 10.25,-5.9 8.53,-11.67 -5.69,-1.18 -6.38,2.66 -8.53,6.13z"/>
  </g>
 </g>
</svg>
