<?xml version="1.0" encoding="UTF-8"?>
<!DOCTYPE svg PUBLIC "-//W3C//DTD SVG 1.1//EN" "http://www.w3.org/Graphics/SVG/1.1/DTD/svg11.dtd">
<!-- Creator: CorelDRAW 2020 (64-Bit) -->
<svg xmlns="http://www.w3.org/2000/svg" xml:space="preserve" width="201px" height="109px" version="1.1" style="shape-rendering:geometricPrecision; text-rendering:geometricPrecision; image-rendering:optimizeQuality; fill-rule:evenodd; clip-rule:evenodd"
viewBox="0 0 201 109"
 xmlns:xlink="http://www.w3.org/1999/xlink"
 xmlns:xodm="http://www.corel.com/coreldraw/odm/2003">
 <defs>
  <style type="text/css">
   <![CDATA[
    .fil4 {fill:#5E3612}
    .fil5 {fill:#603714}
    .fil1 {fill:#E5B992}
    .fil0 {fill:#F6D6BA}
    .fil2 {fill:#F7D8BC}
    .fil3 {fill:#F8EBE2}
   ]]>
  </style>
 </defs>
 <g id="Слой_x0020_1">
  <metadata id="CorelCorpID_0Corel-Layer"/>
  <g id="_2726231477552">
   <path class="fil0" d="M92.69 101.02c-10.4,-2.31 -2.82,-12.77 0,0zm17.27 -7.07c1.49,-0.59 2.04,-0.29 3.2,0.24l-0.11 6.08c-1.65,-0.56 -0.7,0.23 -1.72,-0.73 -1.56,-1.47 -2.28,-3.67 -1.37,-5.59zm12.55 -1.45c3.55,-2.2 4.77,-2.19 6.95,-0.57l-0.04 2.09c-2.53,1.66 -5.5,0.29 -6.91,-1.52zm-51.89 3.24l-1.34 -0.46c-1.57,-3.39 0.94,-5.48 3.92,-6.14 0.12,4.64 0.11,5.33 -2.58,6.6zm28.29 -2.31c-3.89,-8.51 6.31,-8.87 2.49,-2.51l-2.49 2.51zm-20.12 -9.03c10.29,-1.64 7.54,6.03 2.63,2.96 -2.66,-1.66 -2.43,-2.67 -2.63,-2.96zm59.18 -3.95c0.85,2.7 0.36,4.82 -1.2,6.51 -1.39,-1.68 -5.12,-8.68 1.2,-6.51zm-22.95 -2.05c1.45,0.01 1.84,-0.06 3.28,0.34 2.82,0.79 1.9,0.53 3.01,2.1 -1.96,5.7 -5.38,0.3 -6.29,-2.44zm-19.79 -6.07c2.71,1.69 3.64,5.21 2.36,6.52 -4.99,2.6 -2.9,-3.87 -2.36,-6.52zm-26.18 1.79c4,1 5.65,2.73 4.08,5.87 -0.12,0.22 -0.4,0.22 -0.55,0.24 -1.61,0.28 -0.47,0.18 -2.27,0.13l-1.26 -6.24zm59.5 -6.34c2.71,-0.29 1.77,-0.49 3.96,0.79 2.63,1.55 1.52,0.51 2.58,2.79 -1.18,0.11 -2.6,0.41 -3.75,0.4 -0.62,-0.01 -1.2,-0.04 -1.75,-0.21 -0.97,-0.32 -0.92,-0.56 -1.32,-0.85l0.28 -2.92zm-21.54 -3.63c1.89,0.81 1.83,0.51 2.89,2.97 0.74,1.73 0.49,2.58 -0.1,3.79 -5.02,0.62 -3.25,-2.81 -2.79,-6.76zm-22.95 6.54c-7.05,-0.59 -1.48,-5.3 1.49,-6.24 0.07,2.65 -0.77,4.53 -1.49,6.24zm-9.67 -16.49c2.62,1 3.36,0.98 4.38,3.29 1.2,2.72 0.36,3.28 -2.63,3.1 -1.67,-2.12 -1.5,-3.56 -1.75,-6.39zm46.61 6.02c-1.76,-0.58 -1.78,-0.73 -2.52,-2.23 0.79,-2.13 2.74,-2.98 5.15,-3.97 0.09,3.3 -0.76,4.75 -2.63,6.2zm-27.13 -0.06c-0.21,-3.65 -0.4,-6.15 2.97,-6.65l1.81 1.58c-1.1,2.54 -2.65,4.28 -4.78,5.07zm-26.63 -8.53l1.04 1.51c-4.72,7.41 -7.84,31.73 -6.84,42.29 0.34,3.65 1.19,4.31 -0.19,5.66 5.74,4.4 1.64,7.17 16.24,8.11 11.63,0.75 47.23,0.1 58.55,-2.24 4.66,-0.96 6.1,-3.62 7.47,-3.95 0.91,-2.47 0.67,-1.95 2.21,-3.72 -0.74,-1.2 0.47,-2.54 0.58,-5.4 0.08,-2.07 -0.29,-4.64 -0.61,-6.65 -1.59,-10.02 -7.19,-25.84 -11.23,-34.96 -9.72,-6.13 -20.32,-4.25 -33.47,-4.34 -6.18,-0.04 -12.49,-0.17 -18.65,-0.13 -13.21,0.09 -9.59,4.88 -15.1,3.82z"/>
   <path class="fil1" d="M134.46 52.28c4.04,9.12 9.64,24.94 11.23,34.96 0.32,2.01 0.69,4.58 0.61,6.65 -0.11,2.86 -1.32,4.2 -0.58,5.4 4.54,-0.34 13.65,-5.54 17.06,-7.65 4.23,-2.63 10.33,-6.83 9.73,-13.57 -0.11,-0.2 -0.19,-0.46 -0.26,-0.63 -2.65,-6.84 -4.23,-8.54 -8.68,-15.1 -7.53,-11.11 -2.72,-5.37 -10.56,-13.56 -10.06,-2.06 -10.57,1.32 -18.55,3.5z"/>
   <path class="fil1" d="M50.66 50.95c-1.47,2.22 -3.2,3.96 -4.81,6.43l-12.64 19.93c-1.1,9.41 4.37,11.62 10.13,15.74 4.24,3.03 12.07,6.55 17.91,8.04 1.38,-1.35 0.53,-2.01 0.19,-5.66 -1,-10.56 2.12,-34.88 6.84,-42.29l-1.04 -1.51c-3.22,-0.54 -5,-2.17 -8.46,-2.54 -4.03,-0.42 -5.09,0.93 -8.12,1.86z"/>
   <path class="fil0" d="M153.01 48.78c7.84,8.19 3.03,2.45 10.56,13.56 4.45,6.56 6.03,8.26 8.68,15.1 0.07,0.17 0.15,0.43 0.26,0.63l0.06 -2.93c3.71,-1.75 10.53,-10.62 13.06,-15.31 7.05,-13.05 6.61,-36.12 -17.46,-23.07 -9.11,4.95 -12.95,11.1 -15.16,12.02z"/>
   <path class="fil2" d="M19.18 38.59l-1.05 2.03c-0.44,0.82 -0.86,1.53 -1.11,2.38 -3.72,12.48 15.44,30.89 16.19,34.31l12.64 -19.93c1.61,-2.47 3.34,-4.21 4.81,-6.43 -2.06,-3.57 -9.29,-8.53 -13.27,-10.84 -2.28,-1.32 -4.98,-2.96 -8.31,-3.48 -4.79,-0.75 -6.69,0.95 -9.9,1.96z"/>
   <path class="fil3" d="M5.83 18.79c1.8,1.04 1.8,2.25 3.39,3.89 1.93,-0.96 0.57,0.25 2.23,-2.11l4.51 -7.91c2.36,-3.75 5.58,-9.42 0.61,-12.15 -4.37,-0.16 -5.19,3.07 -6.66,7.25 -2.33,-1.2 -1.91,-4.94 -5.52,-7.26 -11.25,1.22 0.28,15.53 1.44,18.29z"/>
   <path class="fil3" d="M188.14 87.06c-3.21,0.11 -5.86,-1.06 -7.5,0.02 2.29,1.91 4.48,3.3 5.84,5.54l-2.37 7.15 6.42 -5.18 5.36 5.63 -1.7 -8.28 6.31 -2.75c-0.75,-0.57 -0.26,-0.35 -1.54,-0.8l-5.64 -1.16c-0.77,-2.15 -1.09,-4.72 -2.6,-6.18l-2.58 6.01z"/>
   <path class="fil4" d="M70.62 95.74c2.69,-1.27 2.7,-1.96 2.58,-6.6 -2.98,0.66 -5.49,2.75 -3.92,6.14l1.34 0.46z"/>
   <path class="fil5" d="M76.14 60.59c2.99,0.18 3.83,-0.38 2.63,-3.1 -1.02,-2.31 -1.76,-2.29 -4.38,-3.29 0.25,2.83 0.08,4.27 1.75,6.39z"/>
   <path class="fil4" d="M132.51 68.57c-2.19,-1.28 -1.25,-1.08 -3.96,-0.79l-0.28 2.92c0.4,0.29 0.35,0.53 1.32,0.85 0.55,0.17 1.13,0.2 1.75,0.21 1.15,0.01 2.57,-0.29 3.75,-0.4 -1.06,-2.28 0.05,-1.24 -2.58,-2.79z"/>
   <path class="fil4" d="M107.01 64.15c-0.46,3.95 -2.23,7.38 2.79,6.76 0.59,-1.21 0.84,-2.06 0.1,-3.79 -1.06,-2.46 -1,-2.16 -2.89,-2.97z"/>
   <path class="fil4" d="M129.42 94.02l0.04 -2.09c-2.18,-1.62 -3.4,-1.63 -6.95,0.57 1.41,1.81 4.38,3.18 6.91,1.52z"/>
   <path class="fil5" d="M93.87 60.16c2.13,-0.79 3.68,-2.53 4.78,-5.07l-1.81 -1.58c-3.37,0.5 -3.18,3 -2.97,6.65z"/>
   <path class="fil4" d="M73.13 79.99c1.57,-3.14 -0.08,-4.87 -4.08,-5.87l1.26 6.24c1.8,0.05 0.66,0.15 2.27,-0.13 0.15,-0.02 0.43,-0.02 0.55,-0.24z"/>
   <path class="fil4" d="M101.4 90.92c3.82,-6.36 -6.38,-6 -2.49,2.51l2.49 -2.51z"/>
   <path class="fil5" d="M115.02 78.4c0.91,2.74 4.33,8.14 6.29,2.44 -1.11,-1.57 -0.19,-1.31 -3.01,-2.1 -1.44,-0.4 -1.83,-0.33 -3.28,-0.34z"/>
   <path class="fil5" d="M136.77 86.96c1.56,-1.69 2.05,-3.81 1.2,-6.51 -6.32,-2.17 -2.59,4.83 -1.2,6.51z"/>
   <path class="fil4" d="M95.23 72.33c-0.54,2.65 -2.63,9.12 2.36,6.52 1.28,-1.31 0.35,-4.83 -2.36,-6.52z"/>
   <path class="fil4" d="M78.79 84.4c0.2,0.29 -0.03,1.3 2.63,2.96 4.91,3.07 7.66,-4.6 -2.63,-2.96z"/>
   <path class="fil5" d="M121 60.22c1.87,-1.45 2.72,-2.9 2.63,-6.2 -2.41,0.99 -4.36,1.84 -5.15,3.97 0.74,1.5 0.76,1.65 2.52,2.23z"/>
   <path class="fil4" d="M92.69 101.02c-2.82,-12.77 -10.4,-2.31 0,0z"/>
   <path class="fil5" d="M84.06 70.69c0.72,-1.71 1.56,-3.59 1.49,-6.24 -2.97,0.94 -8.54,5.65 -1.49,6.24z"/>
   <path class="fil4" d="M111.33 99.54c1.02,0.96 0.07,0.17 1.72,0.73l0.11 -6.08c-1.16,-0.53 -1.71,-0.83 -3.2,-0.24 -0.91,1.92 -0.19,4.12 1.37,5.59z"/>
  </g>
 </g>
</svg>
