<?xml version="1.0" encoding="UTF-8"?>
<!DOCTYPE svg PUBLIC "-//W3C//DTD SVG 1.1//EN" "http://www.w3.org/Graphics/SVG/1.1/DTD/svg11.dtd">
<!-- Creator: CorelDRAW 2020 (64-Bit) -->
<svg xmlns="http://www.w3.org/2000/svg" xml:space="preserve" width="168px" height="125px" version="1.1" style="shape-rendering:geometricPrecision; text-rendering:geometricPrecision; image-rendering:optimizeQuality; fill-rule:evenodd; clip-rule:evenodd"
viewBox="0 0 168 125"
 xmlns:xlink="http://www.w3.org/1999/xlink"
 xmlns:xodm="http://www.corel.com/coreldraw/odm/2003">
 <defs>
  <style type="text/css">
   <![CDATA[
    .fil10 {fill:#4C290C}
    .fil4 {fill:#5C3513}
    .fil0 {fill:#603714}
    .fil16 {fill:#A7AD0A}
    .fil19 {fill:#ABB10B}
    .fil13 {fill:#B5DADD}
    .fil12 {fill:#BADBDD}
    .fil7 {fill:#EBCBB2}
    .fil18 {fill:#ED6423}
    .fil14 {fill:#F06524}
    .fil15 {fill:#F26423}
    .fil6 {fill:#F5D8BB}
    .fil5 {fill:#F6D6BA}
    .fil3 {fill:#F7D8BC}
    .fil11 {fill:#F8EBE2}
    .fil17 {fill:#FAC609}
    .fil2 {fill:#FBC509}
    .fil9 {fill:#FED141}
    .fil1 {fill:#FEDB74}
    .fil8 {fill:#FFD243}
   ]]>
  </style>
 </defs>
 <g id="Слой_x0020_1">
  <metadata id="CorelCorpID_0Corel-Layer"/>
  <g id="_2726423437280">
   <path class="fil0" d="M31.3 76.16c1.25,0.5 0.52,-0.31 0.67,2.2l0.64 21.23c0.43,7.89 1.02,17.33 0.9,25.12 2.92,0.74 6.14,0.62 9.15,0.38 0.64,-10.38 0.52,-32.35 0.54,-44.45 0.01,-13.55 -1.01,-12.32 2.68,-13.09l-0.68 57.83c4.31,-0.04 8.63,-0.08 12.93,-0.17 2.06,-0.05 4.12,-0.07 6.18,-0.09 4.7,-0.05 4.24,0.26 5.54,-0.96 -5.67,0 -10.01,0.17 -15.55,0.56 1.68,-4.87 1.85,-27.95 2.14,-35.72l0.23 -9.53c0.31,-3.07 -0.77,-1.44 1.02,-2.59 -3.26,-5.2 -3.55,-7.34 -9.65,-9.56l-3.91 -0.08c-6.92,0.79 -10.89,3.7 -12.83,8.92z"/>
   <path class="fil1" d="M118.53 50.47l-2.74 1.46c1.37,5.1 9.13,17.65 11.67,24.19 -3.17,0.42 -14.4,-0.53 -18.92,-0.71 -0.69,-0.03 -2.55,-0.15 -3.13,-0.1 -1.61,0.14 -0.41,-0.39 -1.87,0.61l0.03 4.14 23.24 1.74c-4.05,3.52 -15.22,9.75 -19.13,12.76 0.24,1.79 0.89,2.52 2.11,3.9 3.97,-1.32 15.05,-9.89 17.51,-10.75 -0.87,3.73 -5.52,13.93 -6.64,17.44 -0.71,2.23 -1.1,1.53 0.23,3.2l2.26 0.59 1.65 -0.14c0.16,-2.29 2.66,-7.61 3.61,-10.18 0.69,-1.87 1.32,-3.28 1.94,-5.16l2.07 -4.68c0.05,-0.07 0.16,-0.23 0.25,-0.34 1.9,3.07 3.89,7.3 5.69,10.56l4.27 8.05c1.11,1.96 0.59,1.66 3.23,1.73l2.36 -1.33c-0.51,-2.37 -4.87,-9.65 -6.04,-11.64 -1.36,-2.33 -5.58,-9.72 -6.27,-12.5l26.83 4.2 0.04 -3.05 -0.4 -1.76 -23.98 -4c0.53,-1.25 13.19,-10.03 16.07,-12.04 4.05,-2.85 4.65,-2.01 4.91,-4.1 -0.37,-1.76 -0.51,-2.22 -2.02,-3.38 -3.1,1.34 -12.83,8.54 -16.45,11.3 -1.24,0.94 -3.99,3.12 -5.19,3.27 0.25,-8.39 5.24,-17.08 7.02,-24.55l-5.14 -1.18c0.1,2.3 0.27,1.04 -0.64,3.38 -3.01,7.69 -5.46,19.03 -5.97,20.14l-5.53 -10.44c-1.16,-2.29 -4.8,-8.57 -4.97,-10.86l-1.96 0.23z"/>
   <path class="fil2" d="M103.54 75.92c0.71,-5.34 1.88,-10.23 3.86,-14.25 2.38,-4.84 4.77,-6.2 8.39,-9.74l2.74 -1.46c4.49,-3.05 13.32,-3.45 19.07,-2.45l5.14 1.18c5.97,2 12.43,5.55 14.62,9.98 1.51,1.16 1.65,1.62 2.02,3.38 2.96,2.63 5.86,17.72 3.4,21.9l-0.04 3.05c-2.19,5.34 -2.23,7.52 -5.25,11.75 -2.59,3.63 -4.82,5.43 -9.27,8.19l-2.36 1.33c-5.72,2.44 -16.71,3.64 -22.71,0.16l-2.26 -0.59c-2.17,-1.42 -4.63,-2.89 -6.21,-4.13 -1.5,-1.19 -4.25,-4.12 -4.89,-5.76 -1.22,-1.38 -1.87,-2.11 -2.11,-3.9 -2.96,-2.84 -3.87,-9.97 -4.11,-14.5l-0.03 -4.14zm-4.69 8.67c6.13,44.54 73.93,41.65 68.88,-9.97 -2.16,-22.08 -19.25,-32.82 -39.56,-31.34 -22.63,1.64 -31.85,22.93 -29.32,41.31z"/>
   <path class="fil3" d="M8.26 65.16c-0.6,-1.23 -0.87,-5.23 2.06,-5.48 0.5,1.81 0.43,1.32 -0.12,3.37 -0.8,2.92 -0.17,1.72 -1.94,2.11zm6.2 -14.57c-2.18,0.02 -4.9,-0.32 -5.49,-2.33 1.38,-1.05 1.36,-0.79 3.31,-0.16 2.52,0.82 1.96,0.43 2.18,2.49zm5.05 -10.14c2.44,0.04 4.9,1.36 4.89,3.83 -2.26,0.19 -1.3,0.2 -3.18,-1.14 -1.34,-0.95 -1.59,-0.67 -1.71,-2.69zm8.56 -4.53c0.52,-1.56 0.6,-1.51 2.71,-2.15 2.18,-0.66 2.06,-0.76 2.97,0.54 -0.83,1.78 -3.94,2.65 -5.68,1.61zm9.31 -10.26c-1.33,2.18 -4.52,3.65 -7.17,4.8 -2.53,1.11 -5.52,2.13 -8.25,3.01 -28.87,9.32 -23.37,35.79 -16.37,40.41 1.11,-1.48 1.36,-2.42 3.34,-3.75 1.58,-1.07 3.6,-1.58 5.81,-2.02l1.83 -0.12c-0.96,-2.16 -0.95,-2.21 -0.12,-4.87 0.32,-1.04 0.82,-2.29 1.2,-3.23 2.24,-5.62 7.87,-12.16 12.39,-16.17l2.52 -2.58c1.14,-1.44 0.94,-1.22 2.11,-2.3 1.51,-1.4 3.22,-3.66 4.28,-5.17 4.41,-6.25 3.73,-7.29 3.54,-13.89 -0.89,1.13 -1.34,2.12 -2.25,3.43 -0.51,0.72 -0.77,1.11 -1.24,1.53 -1.41,1.24 -0.29,0.55 -1.62,0.92z"/>
   <path class="fil4" d="M21.71 125.5l8.97 -0.03c1,-4.29 -0.1,-19.3 -0.39,-24.75 -0.22,-4.21 -0.13,-8.11 -0.34,-12.28 -0.11,-2.14 -1.18,-11.49 -0.04,-12.28 -1.64,-5.33 -5.32,-7.83 -12.12,-8.16l-1.22 -0.01 -1.83 0.12 6.24 49.65c0.31,2.3 1.12,5.47 0.73,7.74z"/>
   <path class="fil5" d="M29.79 67.64c-0.08,-1.68 0.36,-1.68 1.99,-2.03 3.42,-0.72 3.27,0.25 3.61,0.51 -0.8,1.39 0.15,1.1 -2.55,1.54 -1.76,0.29 -1.37,0.3 -3.05,-0.02zm0.13 -12.67c0.18,-1.4 0.12,-0.55 0.75,-1.36 1.54,0.98 1.15,0.21 1.57,2.58 0.32,1.81 0.32,1.38 0.06,3.1 -2.17,-0.13 -2.67,-2.16 -2.38,-4.32zm11.69 -7.67c-0.79,2.15 -4.93,1.57 -5.82,-0.16 0.7,-0.67 -1.12,-0.46 1.6,-0.87 1.66,-0.25 3.25,0.33 4.22,1.03zm4.2 -7.86c-1.77,-0.53 -2.27,-1.07 -1.73,-5.75 3.54,0.53 2.36,4.69 1.73,5.75zm-28.02 28.56c6.8,0.33 10.48,2.83 12.12,8.16 1.18,0.79 0.16,0.64 1.39,0 1.94,-5.22 5.91,-8.13 12.83,-8.92 0.78,-2.46 0.35,-0.02 0.16,-2.98 -0.07,-1.09 -0.17,-2.02 -0.16,-3.16 0.03,-1.97 0.24,-3.69 0.57,-5.6 0.84,-4.83 8.57,-24.44 0.71,-30.52 -0.39,5.09 -3.26,9.34 -5.77,12.09l-12.45 13.85c-1.46,1.33 -0.92,0.4 -2.3,2.24 -5.02,6.7 -6.8,14.5 -6.89,14.31 -0.04,-0.08 -0.14,0.35 -0.21,0.53z"/>
   <path class="fil5" d="M56.03 66.52c-2.69,-1.3 -1.53,-0.24 -1.94,-2.08 1.63,-0.86 1.81,-0.53 3.6,0.4 2.03,1.07 1.98,0.24 1.35,2.68 -1.38,-0.12 -1.79,-0.41 -3.01,-1zm-4.06 -14.19c0.69,0.29 4.66,3.3 2.24,5.21 -0.5,-0.27 -4.3,-3.04 -2.24,-5.21zm5.11 -1.83c-0.14,-2.53 1.81,-4.59 4.33,-4.41 0.03,2.27 -1.99,4.36 -4.33,4.41zm-1.76 -10.23c-0.73,-1.5 -0.53,-1.17 0.07,-3.05 0.88,-2.82 0.51,-2.14 2.18,-2.37 0.72,1.48 0.48,1.4 -0.15,3.22 -0.78,2.22 -0.16,1.85 -2.1,2.2zm-7.28 27.05c6.1,2.22 6.39,4.36 9.65,9.56 0.44,0.74 -0.12,1.32 0.83,0.19 1.02,-1.24 1.61,-2.35 2.53,-3.59 0.75,-1.02 2.35,-2.7 3.42,-3.39 -1.68,-9.15 4.55,-17.55 0.19,-27.77 -2.24,-5.26 -11.51,-15.95 -15.23,-17.24 1.06,5.62 4.54,9 0.76,20.71 -2.55,7.92 -4.92,12.48 -2.15,21.53z"/>
   <path class="fil6" d="M73.56 53.59c-2,-0.78 -2.21,-0.58 -2.53,-2.66 0.7,-0.3 4.38,0.08 5.52,2.35 -1.03,1.24 -0.72,1.2 -2.99,0.31zm-2.09 -9.8c0.23,-2.45 4.04,-1.68 5.75,-1.31 -0.32,1.79 0.46,1.75 -2.23,1.91 -1.75,0.1 -2.3,0.03 -3.52,-0.6zm-8.49 -13.57c1.12,-0.01 4.55,1.33 3.87,4.4 -1.89,0.12 -1.72,-0.38 -2.91,-1.64 -1.43,-1.53 -1.65,-0.88 -0.96,-2.76zm3.22 38.94l5.95 -0.93 2.79 0.39c1.04,0.77 2.18,1.25 2.94,1.8 1.52,1.1 1.79,1.72 3.19,2.67 7.58,-12.89 3.47,-25.95 -5.89,-36.25l-1.16 -1.78c-2.08,-1.05 -1.23,-0.71 -3.03,-2.41 -4.4,-4.14 -17.74,-11.49 -22.83,-12.21 1.26,0.76 4.26,3.06 5.38,3.91 0.79,0.59 1.53,1.33 2.32,2.17 6.1,6.47 15.09,13.55 12.87,27.33l-2.53 15.31z"/>
   <path class="fil0" d="M5.59 73.88c-1.08,7.48 2.57,18.56 4.45,26.15 0.63,2.58 5.14,23.11 6.62,25.45l5.05 0.02c0.39,-2.27 -0.42,-5.44 -0.73,-7.74l-6.24 -49.65c-2.21,0.44 -4.23,0.95 -5.81,2.02 -1.98,1.33 -2.23,2.27 -3.34,3.75z"/>
   <path class="fil0" d="M69.76 123.81c0.1,-0.12 0.22,-0.29 0.28,-0.39l3.88 -10.92c2.92,-9.6 9.93,-27.9 8.88,-36.34l-1.73 -3.07c-1.4,-0.95 -1.67,-1.57 -3.19,-2.67 -0.76,-0.55 -1.9,-1.03 -2.94,-1.8 -2.4,9.38 -3.98,17.92 -6.09,27.68 -1.31,6.03 -3.53,23.77 -5.15,27.7 2.32,0.83 3.44,0.57 5.98,0.31l0.08 -0.5z"/>
   <path class="fil7" d="M42.49 19.78c0.19,6.6 0.87,7.64 -3.54,13.89 -1.06,1.51 -2.77,3.77 -4.28,5.17 -1.17,1.08 -0.97,0.86 -2.11,2.3l-2.52 2.58c-4.52,4.01 -10.15,10.55 -12.39,16.17 -0.38,0.94 -0.88,2.19 -1.2,3.23 -0.83,2.66 -0.84,2.71 0.12,4.87l1.22 0.01c0.07,-0.18 0.17,-0.61 0.21,-0.53 0.09,0.19 1.87,-7.61 6.89,-14.31 1.38,-1.84 0.84,-0.91 2.3,-2.24l12.45 -13.85c2.51,-2.75 5.38,-7 5.77,-12.09 7.86,6.08 0.13,25.69 -0.71,30.52 -0.33,1.91 -0.54,3.63 -0.57,5.6 -0.01,1.14 0.09,2.07 0.16,3.16 0.19,2.96 0.62,0.52 -0.16,2.98l3.91 0.08c-2.77,-9.05 -0.4,-13.61 2.15,-21.53 3.78,-11.71 0.3,-15.09 -0.76,-20.71 3.72,1.29 12.99,11.98 15.23,17.24 4.36,10.22 -1.87,18.62 -0.19,27.77l1.73 -0.93 2.53 -15.31c2.22,-13.78 -6.77,-20.86 -12.87,-27.33 -0.79,-0.84 -1.53,-1.58 -2.32,-2.17 -1.12,-0.85 -4.12,-3.15 -5.38,-3.91 -0.74,-0.74 -0.72,-0.41 -1.7,-1.45l-3.45 -0.58 -0.52 1.37z"/>
   <path class="fil0" d="M66.2 69.16l-1.73 0.93c-1.07,0.69 -2.67,2.37 -3.42,3.39 -0.92,1.24 -1.51,2.35 -2.53,3.59 1.05,1.34 0.57,0 0.69,2.42l-0.33 9.39c-0.07,3.96 -0.2,7.84 -0.39,11.84 -0.38,8.08 -0.69,15.84 -1.34,23.93 4.78,-0.02 4.28,0.23 4.88,-4.4 1.61,-12.34 5.08,-25.85 6.98,-37.17 0.82,-4.88 2.41,-9.61 3.14,-14.85l-5.95 0.93z"/>
   <path class="fil8" d="M148.22 107.45c4.45,-2.76 6.68,-4.56 9.27,-8.19 3.02,-4.23 3.06,-6.41 5.25,-11.75l-26.83 -4.2c0.69,2.78 4.91,10.17 6.27,12.5 1.17,1.99 5.53,9.27 6.04,11.64z"/>
   <path class="fil8" d="M103.54 75.92c1.46,-1 0.26,-0.47 1.87,-0.61 0.58,-0.05 2.44,0.07 3.13,0.1 4.52,0.18 15.75,1.13 18.92,0.71 -2.54,-6.54 -10.3,-19.09 -11.67,-24.19 -3.62,3.54 -6.01,4.9 -8.39,9.74 -1.98,4.02 -3.15,8.91 -3.86,14.25z"/>
   <path class="fil9" d="M162.78 84.46c2.46,-4.18 -0.44,-19.27 -3.4,-21.9 -0.26,2.09 -0.86,1.25 -4.91,4.1 -2.88,2.01 -15.54,10.79 -16.07,12.04l23.98 4 0.4 1.76z"/>
   <path class="fil10" d="M31.3 76.16c-1.23,0.64 -0.21,0.79 -1.39,0 -1.14,0.79 -0.07,10.14 0.04,12.28 0.21,4.17 0.12,8.07 0.34,12.28 0.29,5.45 1.39,20.46 0.39,24.75l14.52 -0.09 0.68 -57.83c-3.69,0.77 -2.67,-0.46 -2.68,13.09 -0.02,12.1 0.1,34.07 -0.54,44.45 -3.01,0.24 -6.23,0.36 -9.15,-0.38 0.12,-7.79 -0.47,-17.23 -0.9,-25.12l-0.64 -21.23c-0.15,-2.51 0.58,-1.7 -0.67,-2.2z"/>
   <path class="fil10" d="M58.52 77.07c-0.95,1.13 -0.39,0.55 -0.83,-0.19 -1.79,1.15 -0.71,-0.48 -1.02,2.59l-0.23 9.53c-0.29,7.77 -0.46,30.85 -2.14,35.72 5.54,-0.39 9.88,-0.56 15.55,-0.56l-0.09 -0.35 -0.08 0.5c-2.54,0.26 -3.66,0.52 -5.98,-0.31 1.62,-3.93 3.84,-21.67 5.15,-27.7 2.11,-9.76 3.69,-18.3 6.09,-27.68l-2.79 -0.39c-0.73,5.24 -2.32,9.97 -3.14,14.85 -1.9,11.32 -5.37,24.83 -6.98,37.17 -0.6,4.63 -0.1,4.38 -4.88,4.4 0.65,-8.09 0.96,-15.85 1.34,-23.93 0.19,-4 0.32,-7.88 0.39,-11.84l0.33 -9.39c-0.12,-2.42 0.36,-1.08 -0.69,-2.42z"/>
   <path class="fil8" d="M157.36 59.18c-2.19,-4.43 -8.65,-7.98 -14.62,-9.98 -1.78,7.47 -6.77,16.16 -7.02,24.55 1.2,-0.15 3.95,-2.33 5.19,-3.27 3.62,-2.76 13.35,-9.96 16.45,-11.3z"/>
   <path class="fil8" d="M123.15 108.94c6,3.48 16.99,2.28 22.71,-0.16 -2.64,-0.07 -2.12,0.23 -3.23,-1.73l-4.27 -8.05c-1.8,-3.26 -3.79,-7.49 -5.69,-10.56 -0.09,0.11 -0.2,0.27 -0.25,0.34l-2.07 4.68c-0.62,1.88 -1.25,3.29 -1.94,5.16 -0.95,2.57 -3.45,7.89 -3.61,10.18l-1.65 0.14z"/>
   <path class="fil8" d="M118.53 50.47l1.96 -0.23c0.17,2.29 3.81,8.57 4.97,10.86l5.53 10.44c0.51,-1.11 2.96,-12.45 5.97,-20.14 0.91,-2.34 0.74,-1.08 0.64,-3.38 -5.75,-1 -14.58,-0.6 -19.07,2.45z"/>
   <path class="fil8" d="M107.68 94.56c3.91,-3.01 15.08,-9.24 19.13,-12.76l-23.24 -1.74c0.24,4.53 1.15,11.66 4.11,14.5z"/>
   <path class="fil8" d="M109.79 98.46c0.64,1.64 3.39,4.57 4.89,5.76 1.58,1.24 4.04,2.71 6.21,4.13 -1.33,-1.67 -0.94,-0.97 -0.23,-3.2 1.12,-3.51 5.77,-13.71 6.64,-17.44 -2.46,0.86 -13.54,9.43 -17.51,10.75z"/>
   <path class="fil11" d="M64.9 5.11l-2.49 0.5c1.08,0.2 5.24,2.75 6.15,3.58l-0.95 3.91c0.49,0.79 -1.09,4.49 3.46,-2.69 3.15,2.42 1.52,2.61 4.66,3.98 -0.46,-2.29 -1.59,-3.84 -1.68,-5.57l4.87 -1.81c-1.64,-1.05 -2.97,-0.66 -5.35,-0.99 -0.95,-1.32 -0.49,-0.92 -1.05,-2.63l-1.5 -2.89c-1.96,2.29 -0.88,3.03 -2.8,5.45 -2.07,-0.09 -1.9,0.16 -3.32,-0.84z"/>
   <path class="fil12" d="M45.81 39.44c0.63,-1.06 1.81,-5.22 -1.73,-5.75 -0.54,4.68 -0.04,5.22 1.73,5.75z"/>
   <path class="fil13" d="M54.09 64.44c0.41,1.84 -0.75,0.78 1.94,2.08 1.22,0.59 1.63,0.88 3.01,1 0.63,-2.44 0.68,-1.61 -1.35,-2.68 -1.79,-0.93 -1.97,-1.26 -3.6,-0.4z"/>
   <path class="fil14" d="M28.07 35.92c1.74,1.04 4.85,0.17 5.68,-1.61 -0.91,-1.3 -0.79,-1.2 -2.97,-0.54 -2.11,0.64 -2.19,0.59 -2.71,2.15z"/>
   <path class="fil15" d="M57.08 50.5c2.34,-0.05 4.36,-2.14 4.33,-4.41 -2.52,-0.18 -4.47,1.88 -4.33,4.41z"/>
   <path class="fil16" d="M71.47 43.79c1.22,0.63 1.77,0.7 3.52,0.6 2.69,-0.16 1.91,-0.12 2.23,-1.91 -1.71,-0.37 -5.52,-1.14 -5.75,1.31z"/>
   <path class="fil17" d="M71.03 50.93c0.32,2.08 0.53,1.88 2.53,2.66 2.27,0.89 1.96,0.93 2.99,-0.31 -1.14,-2.27 -4.82,-2.65 -5.52,-2.35z"/>
   <path class="fil2" d="M55.32 40.27c1.94,-0.35 1.32,0.02 2.1,-2.2 0.63,-1.82 0.87,-1.74 0.15,-3.22 -1.67,0.23 -1.3,-0.45 -2.18,2.37 -0.6,1.88 -0.8,1.55 -0.07,3.05z"/>
   <path class="fil14" d="M32.3 59.29c0.26,-1.72 0.26,-1.29 -0.06,-3.1 -0.42,-2.37 -0.03,-1.6 -1.57,-2.58 -0.63,0.81 -0.57,-0.04 -0.75,1.36 -0.29,2.16 0.21,4.19 2.38,4.32z"/>
   <path class="fil2" d="M8.97 48.26c0.59,2.01 3.31,2.35 5.49,2.33 -0.22,-2.06 0.34,-1.67 -2.18,-2.49 -1.95,-0.63 -1.93,-0.89 -3.31,0.16z"/>
   <path class="fil16" d="M8.26 65.16c1.77,-0.39 1.14,0.81 1.94,-2.11 0.55,-2.05 0.62,-1.56 0.12,-3.37 -2.93,0.25 -2.66,4.25 -2.06,5.48z"/>
   <path class="fil18" d="M66.85 34.62c0.68,-3.07 -2.75,-4.41 -3.87,-4.4 -0.69,1.88 -0.47,1.23 0.96,2.76 1.19,1.26 1.02,1.76 2.91,1.64z"/>
   <path class="fil13" d="M24.4 44.28c0.01,-2.47 -2.45,-3.79 -4.89,-3.83 0.12,2.02 0.37,1.74 1.71,2.69 1.88,1.34 0.92,1.33 3.18,1.14z"/>
   <path class="fil17" d="M29.79 67.64c1.68,0.32 1.29,0.31 3.05,0.02 2.7,-0.44 1.75,-0.15 2.55,-1.54 -0.34,-0.26 -0.19,-1.23 -3.61,-0.51 -1.63,0.35 -2.07,0.35 -1.99,2.03z"/>
   <path class="fil16" d="M54.21 57.54c2.42,-1.91 -1.55,-4.92 -2.24,-5.21 -2.06,2.17 1.74,4.94 2.24,5.21z"/>
   <path class="fil19" d="M35.79 47.14c0.89,1.73 5.03,2.31 5.82,0.16 -0.97,-0.7 -2.56,-1.28 -4.22,-1.03 -2.72,0.41 -0.9,0.2 -1.6,0.87z"/>
  </g>
 </g>
</svg>
