<?xml version="1.0" encoding="utf-8"?>
<!-- Generator: Adobe Illustrator 15.1.0, SVG Export Plug-In . SVG Version: 6.00 Build 0)  -->
<!DOCTYPE svg PUBLIC "-//W3C//DTD SVG 1.1//EN" "http://www.w3.org/Graphics/SVG/1.1/DTD/svg11.dtd">
<svg version="1.1" id="Слой_1" xmlns:xodm="http://www.corel.com/coreldraw/odm/2003"
	 xmlns="http://www.w3.org/2000/svg" xmlns:xlink="http://www.w3.org/1999/xlink" x="0px" y="0px" width="169px" height="122px"
	 viewBox="0 0 169 122" enable-background="new 0 0 169 122" xml:space="preserve">
<g id="Слой_x0020_1">
	<g id="_2726424292160">
		<path fill="#41210A" d="M50.26,97.26c-0.94,1.59,1.08,1.02-2.61,1.79c-2.14,0.44-2.34,0.44-3.66-0.25
			c0.69-2.25-1.23-1.14,2.16-2.021c0.07-0.02,1.79-0.239,1.8-0.239C50.44,96.641,49.15,96.609,50.26,97.26z M61.92,92.529
			c0.58-1.779-0.57-1.43,2.75-2.27c1.87-0.46,1.55-0.73,3.13,0.25C67.18,93.07,63.75,93.34,61.92,92.529z M87.41,89.16
			c1.1-1.34,0.48-1.34,2.96-0.66c2.979,0.811,2.601,0.561,2.78,2.68C91.1,91.811,88.439,90.439,87.41,89.16z M109,87.811
			c1.15-1.291,0.4-1.36,2.689-0.41c2.08,0.869,2.67,0.93,3.131,3.199C112.561,90.891,110.04,89.391,109,87.811z M15.8,84.8
			c-2.27,0.681-7.26-1.2-5.29-3.12C11.25,80.96,15.56,82.48,15.8,84.8z M23.36,81.061c0.79-1.41-0.78-1.4,2.92-1.541
			c2.07-0.08,1.98-0.01,3.28,0.86c0,0.011,0.29,2.66-4.58,1.5C23.64,81.561,24.21,81.63,23.36,81.061z M96.41,83.41
			c-0.881-2,0.689-5.43,3.24-5.41C100.05,80.33,98.311,83.37,96.41,83.41z M38.47,78.3c2.37,0.101,1.98,0.16,3.19,1.57
			c0.99,1.13,1.32,1.45,1.65,3.351C40.6,82.9,38.83,80.93,38.47,78.3z M118.221,75.66c1.609-0.939,0.969-0.77,3.299-0.59
			c3.92,0.289,2.391,0.439,2.75,1.939c-1.59,0.7-1.18,0.61-3.34,0.42C116.68,77.061,118.721,76.23,118.221,75.66z M104.641,67.79
			c1.83,1.04,2.229,3.94,1.35,6.04c-1.891-0.58-1.141,1.76-2.061-2.28C103.32,68.9,103.34,69.09,104.641,67.79z M11.45,73.55
			c-0.07-2.38,0.96-4.8,3.2-5.659c1.26,1.489,1.1,1.039-0.14,3.369C13.38,73.38,13.76,73.33,11.45,73.55z M23.11,72.68
			c-0.9-1.709-0.84-1.3,0.43-3.09c1.49-2.119,0.87-2.35,3.02-2.26C27.29,69.811,25.24,71.93,23.11,72.68z M45.38,71.5
			c-3.07-3.73-0.72-11.24,2.18-15.75c1.52-2.36,0.82-1.52,3.07-3.7c11.19-10.79,30.45-12.57,40.101-3.68
			c5.279,4.86,9.859,13.649,7.069,19.17C97.01,78.32,84.76,84.33,73.58,84.8C61.78,85.3,47.2,80.21,45.38,71.5L45.38,71.5z
			 M33.26,66.88c1.16-1.851,4.45-2.319,6.24-1.19C38.51,67.62,35.24,68.73,33.26,66.88L33.26,66.88z M112.74,68.4
			c-1.18-2.871-0.29-4.95,2.029-5.931c0.391,0.9,0.75,1.07,0.26,3.3C114.24,69.35,114.46,67.95,112.74,68.4z M131.65,64.87
			c-0.881-1.46-0.961-1.4-0.42-3.8c0.74-3.29,0.289-1.64,1.779-2.37c0.84,1.38,1.04,1.38,0.49,3.84
			C132.75,65.84,133.08,64.26,131.65,64.87z M119.45,56.1c-0.4-3.01,0.36-3.08,0.72-3.62c2.051,1.3,2.38,3.55,1.35,6.09
			C120.15,58.35,119.85,59.15,119.45,56.1z M22.01,56.3c3.08,3.39,1.06,3.3,1.04,3.35C18.14,60.28,17.11,50.91,22.01,56.3z
			 M11.44,57.81c-0.5-0.92-0.67,0.42-0.66-2.3c0.01-3.9,2.01-3.84,2.01-3.84c1.27,1.38,1.17,1.11,0.58,3.55
			C12.51,58.78,12.99,56.91,11.44,57.81z M104.641,54.06c0.56-2.64,4.199-3.33,5.909-2.03c-0.75,1.91,0.71,0.97-2.64,1.95
			C106.08,54.52,106.26,54.65,104.641,54.06z M35.46,53.79c0.2,2.39-0.25,1.82-1.75,2.14c-2.39-6.4-0.51-5.8,0.02-6.27
			C34.93,50.96,35.29,51.73,35.46,53.79z M131.359,46.63c-1.649,1.52-4.739,2.21-6.43,0C125.18,45.32,129.109,44.17,131.359,46.63z
			 M96.54,46.9c-2.34-1.06-2.62-4.27-1.36-6.14c1.66,0.62,1.48-0.18,1.87,2.72C97.311,45.5,97.02,45.93,96.54,46.9z M37.84,42.09
			c2.51,0.22,4.48,3.32,3.26,5.36C39.37,47.66,37.64,44.47,37.84,42.09z M24.67,45.12c-4.37-0.61-1.92-0.05-2.67-1.86
			c1.39-0.65,2.1-0.89,4.22-0.41c1.94,0.44,1.38,0.41,2,1.91C27.16,45.12,26.17,45.33,24.67,45.12z M114.74,37.75
			c2.42,0.04,5.05,0.54,5.88,2.81C118.67,41.83,115.29,40.64,114.74,37.75z M50.94,39.88c1.53-1.72,4.28-2.73,6.12-1.35
			C56.31,40.59,52.68,41.74,50.94,39.88z M103.96,43.34c-0.29-0.49-1.45,0.44-0.229-3.66c0.85-2.86,0.699-1.98,2.459-2.46
			C106.721,39.74,106.24,42.26,103.96,43.34L103.96,43.34z M81.97,34.17c2.58-0.05,3.62,2.9,3.94,5.3
			c-2.26-0.41-1.84-0.26-3.12-2.09C81.33,35.3,81.54,36.33,81.97,34.17z M42.05,34.57c-0.27,0.12,0.44,2.06-3.58-0.78
			c-1.64-1.15-1.48-0.55-1.79-2.47C39.26,30.75,42.27,32.66,42.05,34.57z M62.91,31.12c0.31,2.77,0.47,1.77-0.82,3.24
			c-2.27-1.21-2.74-4.46-0.67-6.33C61.6,28.2,62.58,28.16,62.91,31.12z M95.82,31.05c-0.131,1.41-0.18,0.8-0.641,1.59
			c0,0-2.92,0.9-1.67-5.86C93.51,26.78,96.359,25,95.82,31.05z M73.57,31.67c-1.38-0.98-1.33,0.14-0.94-2.85
			c0.34-2.61,0.1-2.1,1.62-3.5C75.81,27.39,75.5,30.09,73.57,31.67z M51.39,29.76c-0.06,0.04,0.09,1.75-3.96-0.17
			c-2.26-1.08-1.67-0.08-1.9-2.31C48.39,26.65,50.37,27.48,51.39,29.76z M7.63,52.43c-6,12.56-5.68,28.72,1.68,40.86
			c1.3,2.14,2.22,2.851,2.56,4.521c0.92,0.64,0.53,0.239,1.33,1.029c0.05,0.051,0.79,0.939,0.92,1.09
			c2.91-1.359,3.56-6.359,5.04-8.97c4.78-0.76,3.52-0.19,7.1,1.61c4.45,2.24,5.31-0.51,9.34,0.67c5.92,1.729,4.17,20.199,13,15.56
			c3.4-1.771,4.75-10.09,8.67-11.64c3.07-1.221,3.82,1.26,7.52,1.369c2.39-1.489,2.81-3.92,6.61-3.27
			c3.65,0.631,2.82,3.04,6.22,4.631c3.61-0.91,8.069-5.33,11.69,0.529c2.25,3.641,2.819,11.02,8.92,8.58
			c4.289-3.609-0.721-9.8,4.199-13.971c5.23-4.439,8.66,1.291,13.7,0.74c1.149-1.64,1.71-3.649,2.681-5.129
			c7.939-0.66,1.35,6.829,9.649,6.619c4.11-5.66-1.229-10.119,3.42-12.85c2.771-1.46,4.13,1.01,7.761,1.35
			c-0.131-2.05,1.84-8.17,2.109-11.49c1.68-20.439-8.84-36.81-27.18-45.68C83.17,13.42,24.62,15.92,7.63,52.43L7.63,52.43z"/>
		<path fill="#E5B992" d="M14.12,99.93c22.7,25.68,80.28,24.631,104.2,9.65c5.24-3.28,8.029-5.471,12.369-9.91
			c4.32-4.43,5.461-7.72,8.041-12.32l0.6-1.05c0.08-0.14,0.21-0.36,0.311-0.54c-3.631-0.34-4.99-2.81-7.761-1.35
			c-4.649,2.73,0.69,7.189-3.42,12.85c-8.3,0.211-1.71-7.279-9.649-6.619c-0.971,1.479-1.531,3.489-2.681,5.129
			c-5.04,0.551-8.47-5.18-13.7-0.74C97.51,99.2,102.52,105.391,98.23,109c-6.101,2.439-6.67-4.939-8.92-8.58
			c-3.621-5.859-8.081-1.439-11.69-0.529c-3.4-1.591-2.57-4-6.22-4.631c-3.8-0.65-4.22,1.78-6.61,3.27
			c-3.7-0.109-4.45-2.59-7.52-1.369c-3.92,1.55-5.27,9.869-8.67,11.64c-8.83,4.64-7.08-13.83-13-15.56
			c-4.03-1.18-4.89,1.57-9.34-0.67c-3.58-1.801-2.32-2.37-7.1-1.61C17.68,93.57,17.03,98.57,14.12,99.93L14.12,99.93z"/>
		<path fill="#E5B992" d="M45.38,71.5c-0.48-3.1,6.68-5.75,9.22-6.73c13.23-5.069,30.19-2.379,42.61,1.15l0.59,1.62
			c2.79-5.521-1.79-14.31-7.069-19.17c-9.65-8.89-28.911-7.11-40.101,3.68c-2.25,2.18-1.55,1.34-3.07,3.7
			C44.66,60.26,42.31,67.77,45.38,71.5z"/>
		<path fill="#F8EBE2" d="M10.43,1.23c0.17,2.69-0.54,3.82-1.2,6.21L-0.5,6.56c1.82,2.69,4.01,3.87,5.54,6.32l-3.35,8.91
			c7.6-1.29,6.76-7.39,12.61-2.33c2.2,1.91,1.04,1.41,3.48,2.38l-1.6-9.04c1.41-1.15,5.8-3.27,6.81-5.3l-9.18-0.12l-0.14-3.2
			c-1.08-1.37-1.23-2.73-1.52-4.22L10.43,1.23z"/>
		<path fill="#F8EBE2" d="M157.971,106.85c-2.25-1.31-3.261-2.959-5.381-4.91l1.53,7.291l-8.771,2.49
			c1.01,0.859,0.121,0.35,1.65,1.069c0.57,0.271,1.12,0.431,1.73,0.569c1.39,0.33,2.119,0.101,3.689,0.67l-1.13,5.951
			c3.21-1.34,2.89-3.271,6.681-4.78c2.6,2.28,2.129,4.72,5.129,6.84l-0.75-8.06l5.69-1.971c0.13-0.1,0.33-0.27,0.46-0.439
			l-6.04-2.69c-0.149-3.58,0.7-4.34,0.45-6.64c-0.01-0.11-0.08-0.35-0.09-0.44c-0.021-0.08-0.061-0.29-0.12-0.409
			C160.891,103.5,160.34,105.43,157.971,106.85L157.971,106.85z"/>
		<path fill="#F26423" d="M23.05,59.65c0.02-0.05,2.04,0.04-1.04-3.35C17.11,50.91,18.14,60.28,23.05,59.65z"/>
		<path fill="#F8C706" d="M93.51,26.78c-1.25,6.76,1.67,5.86,1.67,5.86c0.461-0.79,0.51-0.18,0.641-1.59
			C96.359,25,93.51,26.78,93.51,26.78z"/>
		<path fill="#FAC609" d="M11.44,57.81c1.55-0.9,1.07,0.97,1.93-2.59c0.59-2.44,0.69-2.17-0.58-3.55c0,0-2-0.06-2.01,3.84
			C10.77,58.23,10.94,56.89,11.44,57.81z"/>
		<path fill="#FAC609" d="M43.99,98.8c1.32,0.69,1.52,0.69,3.66,0.25c3.69-0.771,1.67-0.2,2.61-1.79
			c-1.11-0.65,0.18-0.619-2.31-0.72c-0.01,0-1.73,0.22-1.8,0.239C42.76,97.66,44.68,96.55,43.99,98.8z"/>
		<path fill="#ABB10B" d="M26.28,79.52c-3.7,0.141-2.13,0.131-2.92,1.541c0.85,0.569,0.28,0.5,1.62,0.819
			c4.87,1.16,4.58-1.489,4.58-1.5C28.26,79.51,28.35,79.439,26.28,79.52z"/>
		<path fill="#ABB10B" d="M103.96,43.34c2.28-1.08,2.761-3.6,2.229-6.12c-1.76,0.48-1.609-0.4-2.459,2.46
			C102.51,43.78,103.67,42.85,103.96,43.34L103.96,43.34z"/>
		<path fill="#B3DADC" d="M62.09,34.36c1.29-1.47,1.13-0.47,0.82-3.24c-0.33-2.96-1.31-2.92-1.49-3.09
			C59.35,29.9,59.82,33.15,62.09,34.36z"/>
		<path fill="#ED6423" d="M33.71,55.93c1.5-0.32,1.95,0.25,1.75-2.14c-0.17-2.06-0.53-2.83-1.73-4.13
			C33.2,50.13,31.32,49.53,33.71,55.93z"/>
		<path fill="#F8C706" d="M51.39,29.76c-1.02-2.28-3-3.11-5.86-2.48c0.23,2.23-0.36,1.23,1.9,2.31
			C51.48,31.51,51.33,29.8,51.39,29.76z"/>
		<path fill="#B5DBDE" d="M131.65,64.87c1.43-0.61,1.1,0.97,1.85-2.33c0.55-2.46,0.35-2.46-0.49-3.84
			c-1.49,0.73-1.039-0.92-1.779,2.37C130.689,63.471,130.77,63.41,131.65,64.87z"/>
		<path fill="#B5DBDE" d="M11.45,73.55c2.31-0.22,1.93-0.17,3.06-2.29c1.24-2.33,1.4-1.88,0.14-3.369
			C12.41,68.75,11.38,71.17,11.45,73.55z"/>
		<path fill="#A7AD0A" d="M121.52,75.07c-2.33-0.18-1.689-0.35-3.299,0.59c0.5,0.57-1.541,1.4,2.709,1.77
			c2.16,0.19,1.75,0.28,3.34-0.42C123.91,75.51,125.439,75.359,121.52,75.07z"/>
		<path fill="#ABB10B" d="M112.74,68.4c1.72-0.45,1.5,0.949,2.289-2.631c0.49-2.229,0.131-2.399-0.26-3.299
			C112.45,63.45,111.561,65.529,112.74,68.4z"/>
		<path fill="#A7AD0A" d="M124.93,46.63c1.69,2.21,4.78,1.52,6.43,0C129.109,44.17,125.18,45.32,124.93,46.63z"/>
		<path fill="#ED6423" d="M23.11,72.68c2.13-0.75,4.18-2.869,3.45-5.35c-2.15-0.09-1.53,0.141-3.02,2.26
			C22.27,71.38,22.21,70.971,23.11,72.68z"/>
		<path fill="#F06524" d="M103.93,71.55c0.92,4.04,0.17,1.7,2.061,2.28c0.88-2.1,0.48-5-1.35-6.04
			C103.34,69.09,103.32,68.9,103.93,71.55z"/>
		<path fill="#ABB10B" d="M22,43.26c0.75,1.81-1.7,1.25,2.67,1.86c1.5,0.21,2.49,0,3.55-0.36c-0.62-1.5-0.06-1.47-2-1.91
			C24.1,42.37,23.39,42.61,22,43.26z"/>
		<path fill="#B5DBDE" d="M42.05,34.57c0.22-1.91-2.79-3.82-5.37-3.25c0.31,1.92,0.15,1.32,1.79,2.47
			C42.49,36.63,41.78,34.69,42.05,34.57z"/>
		<path fill="#F8C706" d="M121.52,58.57c1.03-2.54,0.701-4.79-1.35-6.09c-0.359,0.54-1.12,0.61-0.72,3.62
			C119.85,59.15,120.15,58.35,121.52,58.57z"/>
		<path fill="#B5DCE1" d="M10.51,81.68c-1.97,1.92,3.02,3.801,5.29,3.12C15.56,82.48,11.25,80.96,10.51,81.68z"/>
		<path fill="#F26423" d="M61.92,92.529c1.83,0.811,5.26,0.541,5.88-2.02c-1.58-0.98-1.26-0.71-3.13-0.25
			C61.35,91.1,62.5,90.75,61.92,92.529z"/>
		<path fill="#B3DADC" d="M73.57,31.67c1.93-1.58,2.24-4.28,0.68-6.35c-1.52,1.4-1.28,0.89-1.62,3.5
			C72.24,31.81,72.19,30.69,73.57,31.67z"/>
		<path fill="#B3DADC" d="M96.54,46.9c0.479-0.97,0.771-1.4,0.51-3.42c-0.39-2.9-0.21-2.1-1.87-2.72
			C93.92,42.63,94.2,45.84,96.54,46.9z"/>
		<path fill="#ABB10B" d="M85.91,39.47c-0.32-2.4-1.36-5.35-3.94-5.3c-0.43,2.16-0.64,1.13,0.82,3.21
			C84.07,39.21,83.65,39.06,85.91,39.47z"/>
		<path fill="#B3DADC" d="M111.689,87.4c-2.289-0.95-1.539-0.881-2.689,0.41c1.04,1.58,3.561,3.08,5.82,2.789
			C114.359,88.33,113.77,88.27,111.689,87.4L111.689,87.4z"/>
		<path fill="#F26423" d="M104.641,54.06c1.619,0.59,1.439,0.46,3.27-0.08c3.35-0.98,1.89-0.04,2.64-1.95
			C108.84,50.73,105.2,51.42,104.641,54.06z"/>
		<path fill="#FAC609" d="M90.37,88.5c-2.479-0.68-1.86-0.68-2.96,0.66c1.029,1.279,3.689,2.65,5.74,2.02
			C92.971,89.061,93.35,89.311,90.37,88.5z"/>
		<path fill="#B5DBDE" d="M96.41,83.41c1.9-0.04,3.64-3.08,3.24-5.41C97.1,77.98,95.529,81.41,96.41,83.41z"/>
		<path fill="#FAC609" d="M120.62,40.56c-0.83-2.27-3.46-2.77-5.88-2.81C115.29,40.64,118.67,41.83,120.62,40.56z"/>
		<path fill="#ABB10B" d="M41.1,47.45c1.22-2.04-0.75-5.14-3.26-5.36C37.64,44.47,39.37,47.66,41.1,47.45z"/>
		<path fill="#F06524" d="M41.66,79.87c-1.21-1.41-0.82-1.47-3.19-1.57c0.36,2.63,2.13,4.601,4.84,4.921
			C42.98,81.32,42.65,81,41.66,79.87z"/>
		<path fill="#ED6423" d="M50.94,39.88c1.74,1.86,5.37,0.71,6.12-1.35C55.22,37.15,52.47,38.16,50.94,39.88z"/>
		<path fill="#FAC609" d="M33.26,66.88c1.98,1.851,5.25,0.74,6.24-1.19C37.71,64.561,34.42,65.029,33.26,66.88L33.26,66.88z"/>
	</g>
</g>
</svg>
