<?xml version="1.0" encoding="utf-8"?>
<!-- Generator: Adobe Illustrator 15.1.0, SVG Export Plug-In . SVG Version: 6.00 Build 0)  -->
<!DOCTYPE svg PUBLIC "-//W3C//DTD SVG 1.1//EN" "http://www.w3.org/Graphics/SVG/1.1/DTD/svg11.dtd">
<svg version="1.1" id="Слой_1" xmlns:xodm="http://www.corel.com/coreldraw/odm/2003"
	 xmlns="http://www.w3.org/2000/svg" xmlns:xlink="http://www.w3.org/1999/xlink" x="0px" y="0px" width="125px" height="137px"
	 viewBox="0 0 125 137" enable-background="new 0 0 125 137" xml:space="preserve">
<g id="Слой_x0020_1">
	<g id="_2726382710096">
		<path fill="#41210A" d="M10.75,27.4c1.92,4.15,8.27,7.66,14.46,9.21c6.82,1.71,14.27,1.95,21.46,1.58
			c9.67-0.48,33.42-4.76,35.67-11.48c-3.97-4.53-7.39-6.83-14.84-8.72c-11.41-2.9-30.73-2.19-42.17,0.9
			C17.25,21.07,15.26,22.15,10.75,27.4z"/>
		<path fill="#FA9377" d="M82.34,26.71c-2.25,6.72-26,11-35.67,11.48c-7.19,0.37-14.64,0.13-21.46-1.58
			c-6.19-1.55-12.54-5.06-14.46-9.21c-2.03-1.45-8.44-11.45,7.78-17.24c13.5-4.8,41.75-4.4,55.57-0.1
			c6.041,1.88,11.74,5.39,11.19,11.57c-0.101,1.11-0.28,1.81-0.81,2.84C83.41,26.53,83.62,26.04,82.34,26.71z M0.88,26.22l0.97-1.64
			c6.98,28.11,78.7,21.62,89.9,1.59c1.18-2.11,0.04-1.64,1.68-2.18c-0.65-7.75-0.59-8.24-5.189-12.49
			c-2.551-2.37-7.08-4.73-11.061-6.31C60.93-1.3,31.89-0.86,15.44,5.31C5.21,9.15,1.37,12.93,0.88,26.22z"/>
		<path fill="#E3B791" d="M47.85,96.59c-2.41-1.02-0.71,0.1-2.59-1.84c-1.17-1.2-0.75-0.9-1.58-2.109
			C30.09,72.529,38.26,67.8,43.03,71.529c2.86,2.23,3.44,7.33,4.1,11.66c3.26-6.739,1.38-14.5,11.16-12.539
			C61.28,79.88,50.83,90.83,47.85,96.59L47.85,96.59z M67.721,85.09c2.699-12.38-6.48-21.64-17.261-22.84
			c-12.24-1.36-21.79,6.779-23.69,17.1C21.87,105.971,61.85,112.029,67.721,85.09z"/>
		<path fill="#F06524" d="M10.75,27.4c4.51-5.25,6.5-6.33,14.58-8.51c11.44-3.09,30.76-3.8,42.17-0.9
			c7.45,1.89,10.87,4.19,14.84,8.72c1.28-0.67,1.07-0.18,2.141-2.24c0.529-1.03,0.709-1.73,0.81-2.84
			c0.55-6.18-5.149-9.69-11.19-11.57c-13.82-4.3-42.07-4.7-55.57,0.1C2.31,15.95,8.72,25.95,10.75,27.4L10.75,27.4z"/>
		<path fill="#F06524" d="M119,85.15c-2.58,1.5-2.02,2.77-4.971,4.379C104.3,88.62,110.65,77.3,113.4,72.65
			c3.05-5.15,7.619-10.28,9.64-17.041c2.54-8.47-0.24-15.23-5.97-18.28c-7.6-4.04-14.66-2.44-22.94-1.03l-0.7-12.31
			c-1.64,0.54-0.5,0.07-1.68,2.18C80.55,46.2,8.83,52.69,1.85,24.58l-0.97,1.64c0,34.95-8.42,77.25,16.32,96.58
			c11.15,8.71,30.21,11.521,46.8,7.89c18.01-3.93,23.83-12.219,28.13-29.39c7.14,2.53,13.62,5.921,23.74-0.069
			C129.3,93.279,124.37,83.57,119,85.15z M67.721,85.09c-5.871,26.939-45.851,20.881-40.951-5.74c1.9-10.32,11.45-18.459,23.69-17.1
			C61.24,63.45,70.42,72.71,67.721,85.09z M94.2,75.92l0.479-27.46c4.541-1.61,8.5-4.07,14.391-2.53
			C122.49,49.43,110.45,73.17,94.2,75.92z"/>
		<path fill="#603714" d="M47.85,96.59c2.98-5.76,13.43-16.71,10.44-25.939c-9.78-1.96-7.9,5.8-11.16,12.539
			c-0.66-4.33-1.24-9.43-4.1-11.66c-4.77-3.729-12.94,1,0.65,21.111c0.83,1.209,0.41,0.909,1.58,2.109
			C47.14,96.689,45.44,95.57,47.85,96.59z"/>
		<path fill="#F8EBE2" d="M107.439,128.08l-6.239-0.721c1.03,0.9,1.51,1.041,2.84,1.73c1.25,0.66,1.979,1.15,3.21,1.93l-0.58,5.971
			c2.311-1.51,2.061-1.83,3.63-3.61c3.81,1.521,0.921,2.261,5.33,4.12l-2.03-6.4l5.33-2l-2.729-0.85c-1.24-0.16-2.39-0.12-3.63-0.12
			c-0.211-1.53-0.37-2.18-0.82-3.521c-0.57-1.699-0.641-1.92-1.45-2.939L107.439,128.08L107.439,128.08z"/>
	</g>
</g>
</svg>
